<svg width="68" height="67" viewBox="0 0 68 67" fill="none" xmlns="http://www.w3.org/2000/svg">
<path d="M15.9375 0.5H52.0625C60.5954 0.5 67.5 7.31363 67.5 15.7031V51.2969C67.5 59.6864 60.5954 66.5 52.0625 66.5H15.9375C7.40459 66.5 0.5 59.6864 0.5 51.2969V15.7031C0.5 7.31363 7.40459 0.5 15.9375 0.5Z" fill="#6D74B9" stroke="black"/>
<mask id="mask0_144_838" style="mask-type:luminance" maskUnits="userSpaceOnUse" x="7" y="13" width="54" height="41">
<path d="M7.9375 13.8477H60.0625V53.3957H7.9375V13.8477Z" fill="white" stroke="white"/>
</mask>
<g mask="url(#mask0_144_838)">
<path d="M52.1153 17.3741C48.8073 15.8868 45.3223 14.8158 41.7428 14.1865C41.3179 14.9542 40.8625 15.9005 40.5356 16.6581L40.3835 17.0107L40.0035 16.9546C35.968 16.3592 31.9555 16.3594 28.0058 16.9544L27.6218 17.0122L27.4707 16.6545C27.147 15.8878 26.6769 14.9565 26.245 14.1863C22.6633 14.8146 19.1765 15.8863 15.8673 17.3759C9.1266 27.3336 7.26118 37.0315 8.14126 46.617C12.5148 49.7612 16.7527 51.6978 20.9157 52.9946C21.7919 51.7975 22.5821 50.5446 23.2742 49.2358C21.9297 48.7119 20.646 48.089 19.4098 47.3905L19.4048 47.3876L19.4048 47.3876C19.3103 47.3328 19.2302 47.2554 19.172 47.1617L19.172 47.1617C19.1139 47.068 19.0797 46.961 19.073 46.8503C19.0664 46.7396 19.0875 46.6292 19.1342 46.5291L19.5874 46.7403L19.1342 46.529C19.1809 46.4289 19.2515 46.3424 19.339 46.2767L19.3425 46.2741C19.6156 46.073 19.884 45.8657 20.1475 45.6526C20.2428 45.5753 20.3572 45.5263 20.4779 45.5101L20.478 45.5101C20.5992 45.4938 20.7227 45.5112 20.835 45.5606L20.8387 45.5622C29.403 49.4148 38.6647 49.414 47.1236 45.5638C47.2356 45.5121 47.3597 45.4927 47.4818 45.5074C47.4819 45.5074 47.4819 45.5074 47.4819 45.5074L47.4221 46.0039C47.4529 46.0076 47.482 46.0198 47.5061 46.0392C47.7757 46.2584 48.0508 46.4709 48.3311 46.6767L52.1153 17.3741ZM52.1153 17.3741C57.9948 25.9237 60.9026 35.5452 59.8506 46.6165M52.1153 17.3741L60.3339 46.8139M60.3339 46.8139C60.3316 46.8376 60.3243 46.8606 60.3124 46.8813C60.3005 46.9021 60.2843 46.9201 60.2648 46.9342M60.3339 46.8139C61.4415 35.523 58.4785 25.7151 52.4791 17.0208L60.3339 46.8139ZM60.2648 46.9342L60.1662 46.7979L60.1658 46.7974L60.1656 46.7971L59.9717 46.5292C59.9313 46.5584 59.891 46.5875 59.8506 46.6165M60.2648 46.9342C55.7208 50.2222 51.3191 52.2183 46.9783 53.5413L59.8361 46.7666C59.8362 46.7661 59.8362 46.7656 59.8363 46.765C59.841 46.7181 59.8555 46.6729 59.8787 46.6325C59.9022 46.5916 59.9338 46.5567 59.9711 46.5296L60.165 46.7968L60.1654 46.7973L60.1659 46.7979L60.2648 46.9342ZM59.8506 46.6165C55.4772 49.7605 51.2395 51.6971 47.0574 52.9939C46.1906 51.7914 45.4034 50.5352 44.7007 49.2331C46.0352 48.7176 47.3275 48.101 48.5658 47.3886L48.5658 47.3886L48.5709 47.3856C48.665 47.33 48.7444 47.252 48.8018 47.1579L48.8018 47.1579C48.8592 47.0638 48.8925 46.9566 48.8983 46.846L48.8983 46.846C48.9041 46.7353 48.8822 46.6252 48.8348 46.5253C48.8348 46.5253 48.8348 46.5254 48.8348 46.5254L59.8506 46.6165ZM23.91 49.0647L23.7467 49.0569L23.91 49.0647ZM23.7455 49.0568L23.7455 49.0568L23.7455 49.0568ZM19.9158 35.5895C19.9158 38.7265 22.2516 41.3652 25.1904 41.3652C28.1724 41.3652 30.4627 38.7255 30.4644 35.5931C30.508 32.4718 28.1896 29.8138 25.1904 29.8138C22.2072 29.8138 19.9158 32.4555 19.9158 35.5895ZM37.5684 35.5895C37.5684 38.7265 39.9039 41.3652 42.8427 41.3652C45.8468 41.3652 48.1154 38.724 48.1171 35.593C48.1603 32.4718 45.842 29.8138 42.8427 29.8138C39.8596 29.8138 37.5684 32.4556 37.5684 35.5895Z" fill="white" stroke="black"/>
</g>
</svg>
