<svg width="138" height="29" viewBox="0 0 138 29" fill="none" xmlns="http://www.w3.org/2000/svg">
<path d="M1.09012 20.5203C1.09012 20.3266 1.21609 20.1764 1.46802 20.0698C1.60368 19.9922 1.75388 19.9438 1.9186 19.9244C2.08333 19.905 2.24322 19.8953 2.39826 19.8953C2.44671 19.8953 2.49515 19.8905 2.5436 19.8808C2.59205 19.8711 2.63566 19.8663 2.67442 19.8663C2.72287 19.8663 2.82461 19.8566 2.97965 19.8372C3.13469 19.8178 3.29457 19.7888 3.4593 19.75C3.54651 19.7306 3.62888 19.7112 3.7064 19.6919C3.7936 19.6628 3.86143 19.6483 3.90988 19.6483C3.9874 19.6289 4.0843 19.5853 4.20058 19.5174C4.32655 19.4399 4.44283 19.3576 4.54942 19.2703C4.6657 19.1734 4.7626 19.0766 4.84012 18.9797C4.92733 18.8731 4.97093 18.7762 4.97093 18.689L5.01453 17.0029C5.01453 16.8382 4.99515 16.6492 4.9564 16.436C4.92733 16.2229 4.91279 16.0339 4.91279 15.8692C4.91279 15.6269 4.92733 15.3653 4.9564 15.0843C4.99515 14.7936 5.01453 14.5271 5.01453 14.2849C4.93702 14.0523 4.93702 13.7762 5.01453 13.4564V11.625C5.01453 11.5572 5.00969 11.4264 5 11.2326C4.99031 11.0388 4.98546 10.8353 4.98546 10.6221C4.97578 10.4186 4.97093 10.2297 4.97093 10.0552C4.97093 9.87112 4.97093 9.74031 4.97093 9.66279L5.01453 9.32849C5.03391 9.25097 5.04845 9.16861 5.05814 9.0814C5.07752 8.99419 5.08721 8.96027 5.08721 8.97965V8.80523V8.00581V7.46802V7.01744C5.07752 6.99806 5.06298 6.9593 5.0436 6.90116C5.02422 6.84302 5.00484 6.78973 4.98546 6.74128C4.98546 6.7219 4.98062 6.71221 4.97093 6.71221C4.97093 6.70252 4.97093 6.68799 4.97093 6.66861C4.97093 6.63954 4.96124 6.56686 4.94186 6.45058C4.92248 6.3343 4.91279 6.21318 4.91279 6.08721C4.9031 5.95155 4.89341 5.83527 4.88372 5.73837C4.87403 5.64147 4.86919 5.57364 4.86919 5.53488C4.84981 5.5155 4.83043 5.47674 4.81105 5.41861C4.79167 5.36047 4.76744 5.29264 4.73837 5.21512C4.71899 5.16667 4.68992 5.10368 4.65116 5.02616C4.62209 4.94864 4.61725 4.91957 4.63663 4.93895C4.61725 4.87112 4.59787 4.81299 4.57849 4.76454C4.5688 4.7064 4.55426 4.6531 4.53488 4.60465C4.49612 4.40116 4.44767 4.23159 4.38953 4.09593C4.3314 3.96027 4.20543 3.8343 4.01163 3.71802C3.99225 3.71802 3.94864 3.70349 3.88081 3.67442C3.81298 3.64535 3.73546 3.61143 3.64826 3.57268C3.57074 3.53392 3.49806 3.5 3.43023 3.47093C3.3624 3.43217 3.31395 3.40795 3.28488 3.39826C3.28488 3.37888 3.24612 3.32558 3.1686 3.23837C3.10078 3.14147 3.04748 3.05426 3.00872 2.97674C2.98934 2.95736 2.97481 2.9283 2.96512 2.88954C2.95543 2.85078 2.94574 2.81686 2.93605 2.78779C2.91667 2.73934 2.90213 2.70543 2.89244 2.68605C2.88275 2.65698 2.87791 2.63275 2.87791 2.61337C2.86822 2.60368 2.85368 2.59399 2.8343 2.5843C2.81492 2.57461 2.78585 2.55039 2.74709 2.51163C2.53391 2.36628 2.34012 2.2064 2.1657 2.03198C2.00097 1.84787 1.82655 1.64923 1.64244 1.43605C1.64244 1.41667 1.62791 1.39244 1.59884 1.36337C1.57946 1.36337 1.56977 1.35853 1.56977 1.34884V1.3343C1.58915 1.3343 1.57946 1.32461 1.5407 1.30523C1.50194 1.28585 1.46318 1.26163 1.42442 1.23256C1.38566 1.1938 1.34205 1.16473 1.2936 1.14535C1.24515 1.12597 1.21124 1.10659 1.19186 1.08721L1.07558 0.912791C1.02713 0.864342 0.978682 0.806202 0.930233 0.738373C0.881783 0.670543 0.838178 0.593024 0.799419 0.505815C0.935077 0.399226 1.08527 0.316861 1.25 0.258722C1.42442 0.190892 1.60853 0.156977 1.80233 0.156977H1.9186C2.05426 0.176357 2.29651 0.205427 2.64535 0.244187C2.99419 0.273257 3.35756 0.302326 3.73546 0.331396C3.94864 0.350776 4.15698 0.370156 4.36046 0.389536C4.57364 0.399226 4.76744 0.41376 4.94186 0.43314C5.12597 0.44283 5.28585 0.457365 5.42151 0.476745C5.55717 0.486435 5.66376 0.496125 5.74128 0.505815C5.77035 0.525195 5.8188 0.559109 5.88663 0.607559C5.95446 0.656008 6.02229 0.709303 6.09012 0.767443C6.16764 0.815892 6.23546 0.864342 6.2936 0.912791C6.35174 0.961241 6.39535 1 6.42442 1.02907C6.46318 1.16473 6.4874 1.24225 6.49709 1.26163C6.50678 1.28101 6.52616 1.2907 6.55523 1.2907C6.57461 1.31008 6.62791 1.35853 6.71512 1.43605C6.80233 1.51357 6.85562 1.57171 6.875 1.61047C6.89438 1.61047 6.92829 1.625 6.97674 1.65407C7.02519 1.68314 7.0688 1.7219 7.10756 1.77035C7.11725 1.77035 7.13178 1.78004 7.15116 1.79942C7.17054 1.80911 7.19961 1.83333 7.23837 1.87209C7.28682 1.91085 7.34981 1.97384 7.42733 2.06105C7.51453 2.13857 7.63081 2.25 7.77616 2.39535C7.86337 2.46318 7.91667 2.52132 7.93605 2.56977C7.99419 2.67636 8.0281 2.73934 8.03779 2.75872C8.04748 2.7781 8.05233 2.79748 8.05233 2.81686C8.07171 2.84593 8.10077 2.90407 8.13953 2.99128C8.17829 3.07849 8.21705 3.17539 8.25581 3.28198C8.29457 3.37888 8.32849 3.47093 8.35756 3.55814C8.38663 3.64535 8.40601 3.69864 8.4157 3.71802C8.46415 3.85368 8.53682 3.95543 8.63372 4.02326C8.74031 4.09109 8.85174 4.15892 8.96802 4.22674C9.07461 4.27519 9.1812 4.34302 9.28779 4.43023C9.39438 4.50775 9.4719 4.59012 9.52035 4.67733C9.53973 4.71609 9.55911 4.75 9.57849 4.77907C9.59787 4.80814 9.62694 4.86628 9.6657 4.95349C9.72384 5.03101 9.79167 5.11822 9.86919 5.21512C9.94671 5.30233 10.0775 5.44283 10.2616 5.63663C10.4457 5.82074 10.7025 6.07267 11.032 6.39244C11.3614 6.70252 11.812 7.11919 12.3837 7.64244C12.4225 7.72965 12.4709 7.82171 12.5291 7.91861C12.5872 8.00581 12.655 8.09302 12.7326 8.18023C12.9748 8.4031 13.1444 8.66957 13.2413 8.97965C13.5029 9.23159 13.7597 9.49322 14.0116 9.76454C14.2636 10.0359 14.5155 10.312 14.7674 10.593C15.1744 11.0291 15.5814 11.4554 15.9884 11.8721C16.3953 12.2888 16.8459 12.6812 17.3401 13.0494C17.3595 13.0785 17.3886 13.1172 17.4273 13.1657C17.4661 13.2141 17.5048 13.2771 17.5436 13.3547C17.5533 13.3934 17.5775 13.4322 17.6163 13.4709C17.6647 13.5 17.7132 13.5436 17.7616 13.6017C17.936 13.7374 18.0911 13.8876 18.2267 14.0523C18.3624 14.2171 18.5126 14.3866 18.6773 14.561C18.8033 14.6967 18.9535 14.8324 19.1279 14.968C19.312 15.1037 19.4767 15.2345 19.6221 15.3605H19.782H19.8547C19.9031 15.3605 19.9564 15.3556 20.0145 15.3459C20.0824 15.3362 20.1357 15.312 20.1744 15.2733H20.2616C20.2713 15.2733 20.2859 15.2733 20.3052 15.2733C20.3246 15.2733 20.3391 15.2636 20.3488 15.2442C20.4264 15.2054 20.5087 15.1667 20.5959 15.1279C20.6831 15.0891 20.7364 15.0262 20.7558 14.939C20.7752 14.8905 20.7849 14.8324 20.7849 14.7645C20.7849 14.7161 20.7752 14.6725 20.7558 14.6337C20.7364 14.5853 20.7219 14.5368 20.7122 14.4884C20.6928 14.4205 20.6734 14.3527 20.6541 14.2849C20.6347 14.2171 20.6202 14.1444 20.6105 14.0669C20.5911 13.999 20.5814 13.936 20.5814 13.8779C20.5814 13.8101 20.5814 13.7471 20.5814 13.689C20.562 13.0688 20.5281 12.4486 20.4797 11.8285C20.4409 11.1986 20.3973 10.5688 20.3488 9.93895C20.3488 9.76454 20.3391 9.59496 20.3198 9.43023C20.3101 9.25581 20.2955 9.07171 20.2762 8.87791C20.2568 8.85853 20.2374 8.81008 20.218 8.73256C20.2083 8.65504 20.1938 8.56298 20.1744 8.4564C20.1744 8.40795 20.1696 8.36434 20.1599 8.32558C20.1599 8.28682 20.1599 8.25291 20.1599 8.22384C20.0921 7.88469 20.0484 7.54554 20.0291 7.2064C20.0097 6.86725 19.9952 6.51841 19.9855 6.15988L19.8983 5.02616C19.8983 4.9874 19.8886 4.8905 19.8692 4.73547C19.8498 4.58043 19.8256 4.44477 19.7965 4.32849C19.7965 4.25097 19.8014 4.15407 19.811 4.03779C19.8207 3.92151 19.8256 3.81008 19.8256 3.70349C19.8256 3.66473 19.8256 3.62597 19.8256 3.58721C19.8256 3.54845 19.8159 3.51938 19.7965 3.5C19.7965 3.45155 19.7868 3.37403 19.7674 3.26744C19.7578 3.16085 19.7529 3.0688 19.7529 2.99128C19.7141 2.96221 19.6948 2.91376 19.6948 2.84593L19.4477 2.59884C19.3992 2.55039 19.3459 2.49709 19.2878 2.43895C19.2393 2.38081 19.1909 2.33237 19.1424 2.29361C19.1134 2.29361 19.0795 2.28392 19.0407 2.26454C19.0019 2.24516 18.9583 2.23547 18.9099 2.23547C18.8711 2.22578 18.8421 2.22093 18.8227 2.22093C18.8033 2.20155 18.7742 2.16764 18.7355 2.11919C18.6967 2.07074 18.6531 2.02229 18.6047 1.97384C18.5562 1.92539 18.5126 1.88178 18.4738 1.84302C18.4351 1.79457 18.4109 1.77035 18.4012 1.77035C18.2461 1.67345 18.0765 1.61531 17.8924 1.59593C17.718 1.57655 17.5339 1.56686 17.3401 1.56686H17.0349C16.9089 1.56686 16.7829 1.56686 16.657 1.56686C16.531 1.56686 16.4147 1.55717 16.3081 1.53779L15.9593 1.39244C15.8624 1.35368 15.8043 1.3343 15.7849 1.3343C15.7364 1.30523 15.6734 1.26647 15.5959 1.21802C15.5184 1.16957 15.4409 1.11628 15.3634 1.05814C15.2955 0.990311 15.2326 0.922481 15.1744 0.854652C15.126 0.786822 15.1017 0.728683 15.1017 0.680233C15.1017 0.651164 15.1114 0.607559 15.1308 0.549419C15.1599 0.49128 15.189 0.43314 15.218 0.375001C15.2471 0.316861 15.2762 0.268412 15.3052 0.229652C15.344 0.181202 15.3779 0.156977 15.407 0.156977H17.4419C17.5484 0.263567 17.6696 0.326551 17.8052 0.345931C17.9506 0.365311 18.1056 0.384691 18.2703 0.404071H18.4012C18.4399 0.404071 18.5417 0.408915 18.7064 0.418605C18.8711 0.428295 19.0455 0.437985 19.2297 0.447675C19.4234 0.457365 19.5979 0.467055 19.7529 0.476745C19.9176 0.486435 20.0194 0.496125 20.0581 0.505815H23.8953C24.0601 0.544574 24.1812 0.588179 24.2587 0.636629C24.3362 0.685078 24.375 0.791667 24.375 0.956396C24.375 1.16957 24.3314 1.33915 24.2442 1.46512C24.1667 1.5814 24.0552 1.66861 23.9099 1.72674C23.7742 1.78488 23.6143 1.82364 23.4302 1.84302C23.2461 1.8624 23.0523 1.87694 22.8488 1.88663C22.6744 1.90601 22.5048 1.92539 22.3401 1.94477C22.1754 1.95446 22.0203 1.97868 21.875 2.01744C21.7297 2.0562 21.594 2.11434 21.468 2.19186C21.3517 2.26938 21.2597 2.37597 21.1919 2.51163C21.1822 2.57946 21.1725 2.6812 21.1628 2.81686C21.1531 2.94283 21.1434 3.08818 21.1337 3.25291C21.124 3.41764 21.1143 3.59205 21.1047 3.77616C21.095 3.96027 21.0901 4.13469 21.0901 4.29942V5.12791V5.46221C21.0901 5.5688 21.095 5.67539 21.1047 5.78198C21.1143 5.88857 21.1434 6 21.1919 6.11628C21.2112 6.1938 21.2306 6.27616 21.25 6.36337C21.2694 6.45058 21.2791 6.55233 21.2791 6.66861V8.67442L21.2355 8.8343C21.2355 8.89244 21.2258 8.96027 21.2064 9.03779C21.1967 9.11531 21.1919 9.17829 21.1919 9.22674C21.1919 9.30426 21.1919 9.44477 21.1919 9.64826C21.2015 9.85174 21.2161 10.0649 21.2355 10.2878C21.2355 10.5107 21.2403 10.719 21.25 10.9128C21.2597 11.0969 21.2694 11.2326 21.2791 11.3198C21.376 11.4845 21.4438 11.6928 21.4826 11.9448C21.5213 12.187 21.5407 12.405 21.5407 12.5988V12.7006C21.5407 12.72 21.5407 12.7393 21.5407 12.7587C21.5407 12.7781 21.531 12.8411 21.5116 12.9477C21.5116 12.9767 21.5019 13.0252 21.4826 13.093C21.4729 13.1512 21.4486 13.2578 21.4099 13.4128C21.4099 13.4322 21.405 13.5097 21.3953 13.6453C21.3857 13.7713 21.376 13.9118 21.3663 14.0669C21.3469 14.2025 21.3275 14.3333 21.3081 14.4593C21.2888 14.5853 21.2791 14.6725 21.2791 14.7209C21.2694 14.7791 21.2403 14.8711 21.1919 14.9971C21.1434 15.1134 21.0901 15.2393 21.032 15.375C20.9738 15.501 20.9157 15.6172 20.8576 15.7238C20.7994 15.8304 20.7558 15.9031 20.7267 15.9419V16.1017C20.7267 16.1986 20.7316 16.281 20.7413 16.3488C20.751 16.407 20.7897 16.4893 20.8576 16.5959C20.8866 16.7316 20.906 16.8721 20.9157 17.0174C20.9254 17.1531 20.9302 17.2888 20.9302 17.4244C20.9302 17.5601 20.9254 17.7054 20.9157 17.8605C20.906 18.0058 20.8866 18.156 20.8576 18.311C20.9738 18.4855 21.0417 18.6938 21.061 18.936C21.0804 19.1686 21.0901 19.3963 21.0901 19.6192C21.0901 19.7355 21.0804 19.8711 21.061 20.0262C21.0514 20.1715 21.0223 20.312 20.9738 20.4477C20.9254 20.5833 20.8527 20.6996 20.7558 20.7965C20.6686 20.8837 20.5426 20.9273 20.3779 20.9273C20.2229 20.9273 20.0824 20.8789 19.9564 20.782C19.8304 20.6851 19.7141 20.5833 19.6076 20.4767L19.375 20.2442C19.3556 20.2151 19.3169 20.1667 19.2587 20.0988C19.2103 20.031 19.157 19.9632 19.0988 19.8953C19.0407 19.8178 18.9826 19.75 18.9244 19.6919C18.876 19.624 18.8421 19.5804 18.8227 19.561C18.7936 19.5126 18.7015 19.3866 18.5465 19.1831C18.4012 18.9797 18.2413 18.7616 18.0669 18.5291C17.9021 18.2965 17.7422 18.0785 17.5872 17.875C17.4322 17.6715 17.3304 17.5407 17.282 17.4826C17.2432 17.4535 17.156 17.376 17.0203 17.25C16.8847 17.1143 16.7393 16.9545 16.5843 16.7703C16.4196 16.625 16.2597 16.4797 16.1047 16.3343C15.9593 16.189 15.8769 16.0824 15.8576 16.0145C15.8576 16.0048 15.843 15.9903 15.814 15.9709C15.7946 15.9419 15.7752 15.9079 15.7558 15.8692C15.7267 15.8498 15.7025 15.8159 15.6831 15.7674C15.6638 15.719 15.6541 15.7045 15.6541 15.7238C15.499 15.5203 15.3004 15.3072 15.0581 15.0843C14.8159 14.8517 14.593 14.6628 14.3895 14.5174C14.3702 14.4981 14.3314 14.4787 14.2733 14.4593C14.2248 14.4302 14.1812 14.3963 14.1424 14.3576C14.094 14.3479 14.0552 14.3382 14.0262 14.3285C14.0068 14.3091 13.9535 14.2607 13.8663 14.1831C13.8469 14.1831 13.8227 14.1686 13.7936 14.1395C13.7742 14.1105 13.7645 14.0862 13.7645 14.0669C13.7452 14.0669 13.7209 14.0329 13.6919 13.9651C13.6628 13.8876 13.6386 13.8101 13.6192 13.7326L13.561 13.6308C13.5417 13.6114 13.4884 13.563 13.4012 13.4855C13.3236 13.3983 13.2461 13.2965 13.1686 13.1802C13.0814 13.093 12.9942 13.001 12.907 12.9041C12.8295 12.8072 12.781 12.749 12.7616 12.7297C12.655 12.6231 12.5678 12.5068 12.5 12.3808C12.4322 12.2548 12.345 12.1337 12.2384 12.0174C12.1705 11.9205 12.0979 11.8236 12.0203 11.7267C11.9525 11.6298 11.875 11.5378 11.7878 11.4506L11.3808 11.0145C10.9738 10.6754 10.5766 10.3411 10.189 10.0116C9.80136 9.68217 9.40891 9.34787 9.01163 9.00872C9.00194 8.99903 8.97287 8.96996 8.92442 8.92151C8.87597 8.86337 8.82267 8.80523 8.76453 8.74709C8.7064 8.68895 8.64826 8.63566 8.59012 8.58721C8.54167 8.52907 8.50775 8.48547 8.48837 8.4564C8.17829 8.12694 7.87791 7.81202 7.58721 7.51163C7.29651 7.21124 6.97674 6.92054 6.62791 6.63954C6.61822 6.62016 6.57946 6.60078 6.51163 6.5814C6.48256 6.57171 6.45349 6.56686 6.42442 6.56686C6.38566 6.56686 6.34205 6.56686 6.2936 6.56686C6.24515 6.56686 6.22093 6.57655 6.22093 6.59593C6.22093 6.60562 6.21124 6.61047 6.19186 6.61047C6.17248 6.61047 6.1531 6.63469 6.13372 6.68314C6.12403 6.73159 6.11919 6.77035 6.11919 6.79942V8.12209C6.12888 8.15116 6.13857 8.24322 6.14826 8.39826C6.15795 8.54361 6.16764 8.70349 6.17733 8.87791C6.18702 9.05233 6.19671 9.21705 6.2064 9.37209C6.21609 9.52713 6.22093 9.62403 6.22093 9.66279V12.1047L6.27907 12.4826C6.27907 12.531 6.27907 12.5746 6.27907 12.6134C6.27907 12.6521 6.28391 12.6909 6.2936 12.7297C6.30329 12.7684 6.31298 12.8072 6.32267 12.8459V13.6017L6.42442 13.7762V14.7209C6.42442 14.7403 6.41957 14.8033 6.40988 14.9099C6.40988 15.0068 6.42926 15.1085 6.46802 15.2151C6.49709 15.3217 6.52132 15.4331 6.5407 15.5494C6.56008 15.6657 6.56977 15.7141 6.56977 15.6948C6.59884 15.8692 6.61337 16.0436 6.61337 16.218C6.62306 16.3828 6.62791 16.562 6.62791 16.7558C6.62791 17.0174 6.64729 17.2839 6.68605 17.5552C6.7345 17.8266 6.79748 18.0882 6.875 18.3401C6.90407 18.3789 6.96221 18.4467 7.04942 18.5436C7.13663 18.6308 7.22384 18.7277 7.31105 18.8343C7.40795 18.9312 7.5 19.0233 7.58721 19.1105C7.67442 19.1977 7.73256 19.2558 7.76163 19.2849C7.76163 19.2946 7.80039 19.3188 7.87791 19.3576C7.95543 19.3963 8.04264 19.4448 8.13953 19.5029C8.24612 19.5514 8.35271 19.5998 8.4593 19.6483C8.57558 19.6967 8.66764 19.7355 8.73546 19.7645C8.77422 19.7839 8.82752 19.8081 8.89535 19.8372C8.97287 19.8566 9.02132 19.8663 9.0407 19.8663C9.10853 19.876 9.21996 19.8905 9.375 19.9099C9.53973 19.9293 9.7093 19.9486 9.88372 19.968C10.0581 19.9874 10.2229 20.0068 10.3779 20.0262C10.5329 20.0455 10.6395 20.0601 10.6977 20.0698C10.7074 20.0698 10.7122 20.0746 10.7122 20.0843C10.7219 20.0843 10.7316 20.0843 10.7413 20.0843C10.751 20.094 10.7607 20.0988 10.7703 20.0988C10.8769 20.1764 10.9738 20.2539 11.061 20.3314C11.1579 20.4089 11.2064 20.5155 11.2064 20.6512C11.2064 20.7771 11.1676 20.874 11.0901 20.9419C11.0223 21 10.9351 21.0533 10.8285 21.1017C10.7607 21.1017 10.6686 21.1066 10.5523 21.1163C10.436 21.126 10.3101 21.1308 10.1744 21.1308H9.54942C9.23934 21.1308 8.93895 21.1211 8.64826 21.1017C8.35756 21.0824 8.06686 21.0727 7.77616 21.0727C7.47577 21.0533 7.17539 21.0339 6.875 21.0145C6.5843 21.0048 6.27422 21 5.94477 21H4.53488C4.42829 21.0194 4.26841 21.0291 4.05523 21.0291C3.85174 21.0388 3.62888 21.0533 3.38663 21.0727C3.13469 21.0727 2.89729 21.0775 2.67442 21.0872C2.46124 21.0969 2.31105 21.1017 2.22384 21.1017C2.22384 21.1211 2.17054 21.1453 2.06395 21.1744C1.96705 21.2132 1.89438 21.2326 1.84593 21.2326C1.78779 21.2326 1.71512 21.2083 1.62791 21.1599C1.5407 21.1114 1.45349 21.0533 1.36628 20.9855C1.28876 20.9079 1.22093 20.8304 1.16279 20.7529C1.11434 20.6657 1.09012 20.5882 1.09012 20.5203ZM28.1977 15.2878C28.1977 15.8401 28.3091 16.3731 28.532 16.8866C28.7645 17.3905 29.0649 17.8411 29.4331 18.2384C29.5494 18.3547 29.6657 18.4855 29.782 18.6308C29.8983 18.7762 30.0194 18.9167 30.1453 19.0523C30.281 19.188 30.4215 19.314 30.5669 19.4302C30.7219 19.5465 30.8866 19.6337 31.061 19.6919L31.9767 19.8953H32.093H32.2238C32.311 19.8857 32.4322 19.876 32.5872 19.8663C32.7422 19.8566 32.8973 19.8469 33.0523 19.8372C33.2074 19.8275 33.343 19.8178 33.4593 19.8081C33.5756 19.7984 33.6434 19.7936 33.6628 19.7936C33.8081 19.7645 33.968 19.6919 34.1424 19.5756C34.3266 19.4593 34.5107 19.3285 34.6948 19.1831C34.8789 19.0281 35.0533 18.8731 35.218 18.718C35.3924 18.5533 35.5426 18.4176 35.6686 18.311C35.6783 18.311 35.6928 18.3014 35.7122 18.282C35.7219 18.2723 35.7316 18.2578 35.7413 18.2384C35.9835 17.7345 36.1773 17.2064 36.3227 16.6541C36.4777 16.0921 36.5552 15.5446 36.5552 15.0116C36.5552 14.5756 36.5165 14.1686 36.439 13.7907C36.3711 13.4128 36.2548 13.0349 36.0901 12.657C36.0901 12.6279 36.0707 12.5698 36.032 12.4826C36.0029 12.3953 35.9884 12.3421 35.9884 12.3227C35.9302 12.0707 35.8672 11.7994 35.7994 11.5087C35.7413 11.2083 35.6153 10.9612 35.4215 10.7674C35.4021 10.7384 35.3488 10.6802 35.2616 10.593C35.1744 10.5058 35.0775 10.4138 34.9709 10.3169C34.874 10.22 34.782 10.1279 34.6948 10.0407C34.6172 9.95349 34.5736 9.89535 34.564 9.86628C34.5446 9.85659 34.5155 9.83236 34.4767 9.79361C34.4477 9.74516 34.4138 9.69671 34.375 9.64826C34.3362 9.59981 34.2975 9.5562 34.2587 9.51744C34.2297 9.46899 34.2151 9.43992 34.2151 9.43023C34.186 9.41085 34.1424 9.37209 34.0843 9.31395C34.0359 9.24612 34.0019 9.20252 33.9826 9.18314C33.9632 9.18314 33.9293 9.17345 33.8808 9.15407C33.8324 9.125 33.7791 9.09593 33.7209 9.06686C33.6628 9.03779 33.6095 9.01357 33.561 8.99419C33.5126 8.96512 33.4835 8.95058 33.4738 8.95058C33.4448 8.9312 33.3672 8.90698 33.2413 8.87791C33.1153 8.84884 32.9797 8.81977 32.8343 8.7907C32.6986 8.76163 32.5678 8.7374 32.4419 8.71802C32.3256 8.68895 32.2529 8.66957 32.2238 8.65988C32.1754 8.65988 32.0979 8.66957 31.9913 8.68895C31.8847 8.69864 31.7733 8.71802 31.657 8.74709C31.5407 8.76647 31.4293 8.78585 31.3227 8.80523C31.2161 8.82461 31.1289 8.83915 31.061 8.84884C30.9254 8.9845 30.7849 9.11047 30.6395 9.22674C30.5039 9.33333 30.3682 9.44477 30.2326 9.56105C30.0969 9.66764 29.9661 9.78392 29.8401 9.90988C29.7238 10.0262 29.6221 10.1618 29.5349 10.3169C29.5155 10.3459 29.4767 10.4089 29.4186 10.5058C29.3702 10.6027 29.312 10.7093 29.2442 10.8256C29.186 10.9419 29.1279 11.0484 29.0698 11.1453C29.0213 11.2422 28.9922 11.3004 28.9826 11.3198C28.9244 11.436 28.8566 11.562 28.7791 11.6977C28.7112 11.8236 28.6434 11.9593 28.5756 12.1047C28.5078 12.25 28.4496 12.4002 28.4012 12.5552C28.3624 12.7006 28.3382 12.8411 28.3285 12.9767C28.3091 13.0833 28.2897 13.2529 28.2703 13.4855C28.2607 13.718 28.251 13.9603 28.2413 14.2122C28.2316 14.4545 28.2219 14.6822 28.2122 14.8953C28.2025 15.0988 28.1977 15.2297 28.1977 15.2878ZM25.6395 14.4157C25.6395 14.2122 25.6735 14.0087 25.7413 13.8052C25.8188 13.6017 25.8818 13.4031 25.9302 13.2093C25.9399 13.1705 25.9593 13.064 25.9884 12.8895C26.0271 12.7054 26.0659 12.5116 26.1047 12.3081C26.1531 12.1047 26.1967 11.9157 26.2355 11.7413C26.2742 11.5669 26.2985 11.4603 26.3081 11.4215C26.3275 11.3634 26.3517 11.3052 26.3808 11.2471C26.4002 11.1986 26.4196 11.1502 26.439 11.1017C26.468 11.0436 26.4922 11 26.5116 10.9709C26.5795 10.874 26.6618 10.7384 26.7587 10.564C26.8556 10.3895 26.9477 10.22 27.0349 10.0552C27.1318 9.8905 27.2141 9.75 27.282 9.63372C27.3595 9.50775 27.4079 9.43992 27.4273 9.43023C27.437 9.40116 27.4758 9.35271 27.5436 9.28488C27.6114 9.20736 27.6841 9.125 27.7616 9.03779C27.8488 8.95058 27.9312 8.87306 28.0087 8.80523C28.0862 8.72771 28.1492 8.67926 28.1977 8.65988C28.2171 8.63081 28.2703 8.60659 28.3576 8.58721C28.4545 8.56783 28.5126 8.55814 28.532 8.55814C28.8227 8.41279 29.0988 8.27713 29.3605 8.15116C29.6221 8.02519 29.8837 7.90407 30.1453 7.78779C30.4167 7.67151 30.6928 7.56492 30.9738 7.46802C31.2548 7.37112 31.5649 7.27907 31.9041 7.19186H31.9186H31.9767C32.1415 7.20155 32.3547 7.21609 32.6163 7.23547C32.8779 7.24516 33.1298 7.25969 33.3721 7.27907C33.624 7.28876 33.8372 7.29845 34.0116 7.30814C34.1957 7.31783 34.2975 7.32267 34.3169 7.32267C34.7529 7.36143 35.1841 7.49709 35.6105 7.72965C36.0465 7.95252 36.4486 8.23353 36.8169 8.57267C37.1948 8.91182 37.5194 9.28973 37.7907 9.7064C38.0717 10.1134 38.28 10.5107 38.4157 10.8983C38.4254 10.9079 38.4351 10.9516 38.4448 11.0291C38.4641 11.0969 38.4787 11.1744 38.4884 11.2616C38.5078 11.3488 38.5223 11.4312 38.532 11.5087C38.5514 11.5766 38.5707 11.6202 38.5901 11.6395C38.5901 11.6589 38.6047 11.7171 38.6337 11.814C38.6725 11.9012 38.7112 11.9981 38.75 12.1047C38.7984 12.2112 38.8372 12.3081 38.8663 12.3953C38.905 12.4826 38.9293 12.5359 38.939 12.5552C38.939 12.5746 38.9438 12.5988 38.9535 12.6279C38.9535 12.6473 38.9535 12.6667 38.9535 12.686C38.9632 12.7054 38.968 12.72 38.968 12.7297C38.968 12.8944 38.9583 13.0543 38.939 13.2093C38.9196 13.3547 38.9099 13.5048 38.9099 13.6599C38.9099 13.7859 38.9196 13.8973 38.939 13.9942C38.968 14.0911 38.9826 14.1977 38.9826 14.314V14.561C38.8566 15.1424 38.7355 15.7045 38.6192 16.2471C38.5029 16.78 38.3382 17.2839 38.125 17.7587C37.9118 18.2238 37.6308 18.655 37.282 19.0523C36.9331 19.4496 36.4632 19.7984 35.8721 20.0988C35.3004 20.3895 34.7093 20.6172 34.0988 20.782C33.4981 20.9467 32.8828 21.0291 32.2529 21.0291C32.1948 21.0291 32.1172 21.0242 32.0203 21.0145C31.9331 21.0145 31.8459 21.0145 31.7587 21.0145C31.6715 21.0145 31.594 21.0097 31.5262 21C31.4583 21 31.4244 21 31.4244 21C31.4147 21 31.3421 20.9855 31.2064 20.9564C31.0804 20.9176 30.9254 20.874 30.7413 20.8256C30.5669 20.7771 30.3876 20.7287 30.2035 20.6802C30.0194 20.6221 29.8692 20.5785 29.7529 20.5494C29.6463 20.5203 29.5349 20.4913 29.4186 20.4622C29.3023 20.4331 29.1909 20.3847 29.0843 20.3169C28.813 20.1715 28.5465 20.0165 28.2849 19.8517C28.0233 19.687 27.7665 19.5174 27.5145 19.343C27.5048 19.3236 27.4903 19.3043 27.4709 19.2849C27.4516 19.2558 27.437 19.2316 27.4273 19.2122C27.2141 18.9506 27.001 18.626 26.7878 18.2384C26.5746 17.8411 26.3808 17.4244 26.2064 16.9884C26.0417 16.5426 25.906 16.0969 25.7994 15.6512C25.6928 15.1957 25.6395 14.7839 25.6395 14.4157ZM46.4244 19.1105C46.686 19.1977 46.9041 19.2946 47.0785 19.4012C47.2626 19.5078 47.4806 19.561 47.7326 19.561H48.1105C48.1395 19.5514 48.1977 19.5271 48.2849 19.4884C48.3721 19.4399 48.4641 19.3915 48.561 19.343C48.6676 19.2946 48.7597 19.251 48.8372 19.2122C48.9244 19.1638 48.9826 19.1298 49.0116 19.1105C49.0213 19.1105 49.0504 19.1008 49.0988 19.0814C49.1473 19.0523 49.2006 19.0233 49.2587 18.9942C49.3266 18.9651 49.3895 18.9409 49.4477 18.9215C49.5058 18.8924 49.5446 18.8731 49.564 18.8634C49.5736 18.8537 49.6027 18.8246 49.6512 18.7762C49.7093 18.718 49.7723 18.655 49.8401 18.5872C49.9176 18.5194 49.9903 18.4516 50.0581 18.3837C50.126 18.3159 50.1793 18.2674 50.218 18.2384C50.218 18.219 50.2374 18.1802 50.2762 18.1221C50.3149 18.0543 50.3343 18.0058 50.3343 17.9767C50.344 17.9671 50.3537 17.9234 50.3634 17.8459C50.3731 17.7684 50.3828 17.686 50.3924 17.5988C50.4021 17.5116 50.4118 17.4293 50.4215 17.3517C50.4409 17.2742 50.4554 17.2258 50.4651 17.2064C50.4651 17.1967 50.4797 17.1676 50.5087 17.1192C50.5378 17.0707 50.5717 17.0174 50.6105 16.9593C50.6492 16.9012 50.688 16.843 50.7267 16.7849C50.7655 16.7267 50.7946 16.688 50.814 16.6686C50.8915 16.4748 50.9399 16.281 50.9593 16.0872C50.9787 15.8837 50.9884 15.6851 50.9884 15.4913V14.968C50.9884 14.4157 50.969 13.8731 50.9302 13.3401C50.9012 12.8072 50.8624 12.2936 50.814 11.7994C50.7267 11.5862 50.6541 11.3779 50.5959 11.1744C50.5475 10.9709 50.4893 10.7771 50.4215 10.593C50.3537 10.3992 50.2713 10.2151 50.1744 10.0407C50.0872 9.86628 49.9564 9.69671 49.782 9.53198C49.5494 9.3188 49.3314 9.12985 49.1279 8.96512C48.9341 8.80039 48.7306 8.66473 48.5174 8.55814C48.314 8.45155 48.0862 8.36919 47.8343 8.31105C47.5921 8.25291 47.3062 8.22384 46.9767 8.22384H46.8895C46.8508 8.24322 46.7878 8.27229 46.7006 8.31105C46.6134 8.34981 46.5213 8.39341 46.4244 8.44186C46.3275 8.49031 46.2355 8.53876 46.1483 8.58721C46.0707 8.62597 46.0174 8.65019 45.9884 8.65988C45.8236 8.75678 45.6977 8.86337 45.6105 8.97965C45.5329 9.08624 45.4748 9.20252 45.436 9.32849C45.3973 9.45446 45.3731 9.59012 45.3634 9.73547C45.3537 9.88081 45.3343 10.0407 45.3052 10.2151C45.3052 10.2733 45.2907 10.3847 45.2616 10.5494C45.2326 10.7045 45.1986 10.8692 45.1599 11.0436C45.1308 11.218 45.0969 11.3876 45.0581 11.5523C45.0291 11.7074 45.0048 11.814 44.9855 11.8721C44.9952 11.8915 45.0048 11.9302 45.0145 11.9884C45.0339 12.0368 45.0485 12.095 45.0581 12.1628C45.0775 12.2209 45.0921 12.2791 45.1017 12.3372C45.1114 12.3857 45.1163 12.4147 45.1163 12.4244C45.1163 12.4922 45.1211 12.6328 45.1308 12.8459C45.1405 13.0494 45.1502 13.2723 45.1599 13.5145C45.1696 13.7471 45.1793 13.9748 45.189 14.1977C45.2083 14.4109 45.2229 14.5659 45.2326 14.6628V17.1047C45.2422 17.1337 45.2616 17.187 45.2907 17.2645C45.3198 17.3324 45.3488 17.4099 45.3779 17.4971C45.4167 17.5843 45.4506 17.6667 45.4797 17.7442C45.5184 17.8217 45.5475 17.875 45.5669 17.9041C45.5766 17.9138 45.5814 17.9331 45.5814 17.9622C45.5911 17.9816 45.6056 18.001 45.625 18.0203C45.6347 18.0494 45.6492 18.0785 45.6686 18.1076C45.6977 18.1463 45.7461 18.2141 45.814 18.311C45.8915 18.4079 45.969 18.5145 46.0465 18.6308C46.1337 18.7374 46.2112 18.8391 46.2791 18.936C46.3469 19.0233 46.3954 19.0814 46.4244 19.1105ZM39.5058 27.8605C39.5058 27.8411 39.5107 27.8072 39.5204 27.7587C39.53 27.72 39.5349 27.686 39.5349 27.657C39.6027 27.5019 39.6948 27.376 39.811 27.2791C39.9176 27.1919 40.0339 27.124 40.1599 27.0756C40.2955 27.0368 40.436 27.0126 40.5814 27.0029C40.7267 26.9932 40.8721 26.9884 41.0174 26.9884C41.3469 26.9884 41.6376 26.969 41.8895 26.9302C42.1512 26.9012 42.3014 26.7849 42.3401 26.5814C42.3692 26.3779 42.3837 26.1744 42.3837 25.9709C42.3934 25.7674 42.3983 25.5446 42.3983 25.3023C42.3983 25.0601 42.4176 24.8421 42.4564 24.6483C42.4952 24.4545 42.5339 24.2461 42.5727 24.0233V16.7703C42.5727 16.7316 42.5775 16.6734 42.5872 16.5959C42.5969 16.5087 42.6017 16.4215 42.6017 16.3343C42.6114 16.2374 42.6211 16.1502 42.6308 16.0727C42.6405 15.9855 42.6454 15.9273 42.6454 15.8983V15.7674V15.6657C42.6454 15.6366 42.6405 15.5494 42.6308 15.4041C42.6211 15.2587 42.6114 15.1037 42.6017 14.939C42.6017 14.7742 42.5969 14.6192 42.5872 14.4738C42.5775 14.3188 42.5727 14.2219 42.5727 14.1831V12.9767C42.5533 12.9089 42.5388 12.7926 42.5291 12.6279C42.5194 12.4632 42.5097 12.2936 42.5 12.1192C42.4903 11.9448 42.4806 11.78 42.4709 11.625C42.4612 11.47 42.4516 11.3682 42.4419 11.3198C42.4031 10.9903 42.3062 10.7335 42.1512 10.5494C42.0058 10.3556 41.7684 10.2006 41.439 10.0843C41.3905 10.0746 41.3081 10.0601 41.1919 10.0407C41.0756 10.0116 40.9545 9.9874 40.8285 9.96802C40.7025 9.93895 40.5814 9.91473 40.4651 9.89535C40.3488 9.87597 40.2713 9.86628 40.2326 9.86628C40.155 9.86628 40.1114 9.8469 40.1017 9.80814C40.0921 9.75969 40.0872 9.71124 40.0872 9.66279C40.0872 9.46899 40.1502 9.3188 40.2762 9.21221C40.4021 9.09593 40.5475 9.00388 40.7122 8.93605C40.8866 8.86822 41.061 8.81977 41.2355 8.7907C41.4196 8.75194 41.5649 8.70833 41.6715 8.65988C41.6715 8.65988 41.6909 8.64535 41.7297 8.61628C41.7781 8.57752 41.8266 8.53876 41.875 8.5C41.9235 8.46124 41.9671 8.42248 42.0058 8.38372C42.0543 8.34496 42.0833 8.31589 42.093 8.29651C42.1221 8.27713 42.1851 8.24322 42.282 8.19477C42.3886 8.14632 42.5 8.09787 42.6163 8.04942C42.7326 7.99128 42.8391 7.93798 42.936 7.88954C43.0426 7.84109 43.1202 7.80233 43.1686 7.77326C43.3043 7.70543 43.3963 7.66667 43.4448 7.65698C43.5029 7.6376 43.5707 7.62791 43.6483 7.62791C43.7839 7.62791 43.8954 7.66182 43.9826 7.72965C44.0795 7.78779 44.1667 7.85562 44.2442 7.93314C44.3314 8.00097 44.4186 8.0688 44.5058 8.13663C44.6027 8.19477 44.7141 8.22384 44.8401 8.22384C45.0727 8.22384 45.2713 8.17054 45.436 8.06395C45.6105 7.94767 45.7946 7.85078 45.9884 7.77326C46.1822 7.69574 46.3663 7.61822 46.5407 7.5407C46.7248 7.45349 46.9041 7.37597 47.0785 7.30814C47.2626 7.24031 47.4467 7.18702 47.6308 7.14826C47.8246 7.09981 48.0329 7.07558 48.2558 7.07558C48.3236 7.07558 48.4205 7.08043 48.5465 7.09012C48.6822 7.09012 48.75 7.09981 48.75 7.11919C48.7694 7.11919 48.8081 7.12888 48.8663 7.14826C48.9341 7.15795 49.0019 7.17248 49.0698 7.19186C49.1376 7.21124 49.1957 7.23062 49.2442 7.25C49.3023 7.26938 49.3314 7.28392 49.3314 7.29361C49.3411 7.29361 49.375 7.29361 49.4331 7.29361C49.4913 7.29361 49.5494 7.29361 49.6076 7.29361C49.6754 7.29361 49.7384 7.29845 49.7965 7.30814C49.8547 7.30814 49.8934 7.31298 49.9128 7.32267C50.0678 7.34205 50.218 7.41957 50.3634 7.55523C50.5184 7.6812 50.6686 7.78779 50.814 7.875C50.814 7.88469 50.8333 7.90407 50.8721 7.93314C50.9205 7.96221 50.9738 7.99612 51.032 8.03488C51.0901 8.07364 51.1483 8.1124 51.2064 8.15116C51.2742 8.18023 51.3227 8.20446 51.3517 8.22384C51.6231 8.36919 51.8653 8.55814 52.0785 8.7907C52.2917 9.01357 52.4855 9.26066 52.6599 9.53198C52.844 9.79361 53.0087 10.0698 53.1541 10.3605C53.2994 10.6415 53.4351 10.9176 53.561 11.189C53.5804 11.2374 53.5998 11.2955 53.6192 11.3634C53.6483 11.4215 53.6725 11.4845 53.6919 11.5523C53.7209 11.6105 53.7403 11.6638 53.75 11.7122C53.7694 11.7607 53.7791 11.7897 53.7791 11.7994C53.7888 11.7994 53.7936 11.8236 53.7936 11.8721C53.8033 11.9205 53.8081 11.9787 53.8081 12.0465C53.8081 12.1143 53.8081 12.187 53.8081 12.2645C53.8081 12.3421 53.8081 12.405 53.8081 12.4535C53.8081 12.5019 53.8081 12.5649 53.8081 12.6424C53.8081 12.72 53.8081 12.8023 53.8081 12.8895C53.8081 12.9671 53.8033 13.0397 53.7936 13.1076C53.7936 13.1657 53.7888 13.1996 53.7791 13.2093C53.7791 13.2287 53.7645 13.2868 53.7355 13.3837C53.7064 13.4709 53.6919 13.5291 53.6919 13.5581V14.1831C53.6919 14.2122 53.6725 14.2849 53.6337 14.4012C53.6047 14.5078 53.5804 14.595 53.561 14.6628C53.5514 14.6822 53.5368 14.7258 53.5174 14.7936C53.4981 14.8517 53.4738 14.9196 53.4448 14.9971C53.4254 15.0649 53.406 15.1328 53.3866 15.2006C53.3672 15.2587 53.3576 15.2975 53.3576 15.3169C53.3479 15.3556 53.3285 15.4428 53.2994 15.5785C53.28 15.7141 53.2558 15.8595 53.2267 16.0145C53.2074 16.1599 53.188 16.3004 53.1686 16.436C53.1492 16.562 53.1395 16.6395 53.1395 16.6686C53.0911 16.8624 53.0281 17.0174 52.9506 17.1337C52.8828 17.2403 52.7859 17.3905 52.6599 17.5843C52.3886 18.0494 52.1076 18.4612 51.8169 18.8198C51.5359 19.1783 51.2209 19.4787 50.8721 19.7209C50.5233 19.9535 50.1308 20.1328 49.6948 20.2587C49.2587 20.3847 48.7548 20.4477 48.1831 20.4477C47.9506 20.4477 47.718 20.4331 47.4855 20.4041C47.2626 20.3653 47.0349 20.3266 46.8023 20.2878C46.5795 20.2393 46.3517 20.1957 46.1192 20.157C45.8866 20.1182 45.6492 20.0988 45.407 20.0988H45.2326C45.1938 20.1182 45.1647 20.1618 45.1454 20.2297C45.126 20.2878 45.1163 20.3266 45.1163 20.3459C45.0872 20.6851 45.063 21 45.0436 21.2907C45.0242 21.5911 45.0097 21.8866 45 22.1773C44.9903 22.4777 44.9855 22.7781 44.9855 23.0785C44.9855 23.3886 44.9855 23.718 44.9855 24.0669V25.8837C44.9855 26.1647 45.0436 26.3731 45.1599 26.5087C45.2762 26.6444 45.4457 26.78 45.6686 26.9157C45.6977 26.9254 45.7413 26.9399 45.7994 26.9593C45.8672 26.9884 45.9641 27.0126 46.0901 27.032C46.2161 27.061 46.3857 27.0853 46.5988 27.1047C46.812 27.124 47.0882 27.1337 47.4273 27.1337C47.4855 27.1531 47.5339 27.1773 47.5727 27.2064C47.6114 27.2258 47.6502 27.2452 47.689 27.2645C47.7277 27.2936 47.7665 27.3178 47.8052 27.3372C47.8537 27.3857 47.8828 27.4244 47.8924 27.4535C47.9021 27.4826 47.907 27.5213 47.907 27.5698V27.7442C47.907 27.7539 47.8973 27.7926 47.8779 27.8605C47.8585 27.9283 47.8488 27.9719 47.8488 27.9913C47.6841 28.1172 47.5242 28.1948 47.3692 28.2238C47.2141 28.2529 47.0397 28.2674 46.8459 28.2674C46.5843 28.2674 46.3275 28.2432 46.0756 28.1948C45.8333 28.156 45.5766 28.1366 45.3052 28.1366H45.1163C45.0872 28.1366 45.0097 28.1415 44.8837 28.1512C44.7674 28.1609 44.6366 28.1705 44.4913 28.1802C44.3556 28.1996 44.2248 28.2141 44.0988 28.2238C43.9826 28.2335 43.9099 28.2384 43.8808 28.2384H43.1541H41.1919C41.1628 28.2384 41.0998 28.2432 41.0029 28.2529C40.9157 28.2626 40.8188 28.2723 40.7122 28.282C40.6056 28.3014 40.5039 28.3159 40.407 28.3256C40.3198 28.3353 40.2616 28.3401 40.2326 28.3401H40.0872H39.9855C39.9564 28.3304 39.9225 28.311 39.8837 28.282C39.8353 28.2529 39.7868 28.219 39.7384 28.1802C39.6899 28.1415 39.6463 28.1027 39.6076 28.064C39.5688 28.0349 39.5446 28.0107 39.5349 27.9913C39.5252 27.9719 39.5204 27.9525 39.5204 27.9331C39.5107 27.9138 39.5058 27.8895 39.5058 27.8605ZM58.1105 11.3924C58.1105 11.4506 58.1347 11.5087 58.1831 11.5669C58.2413 11.625 58.3043 11.6831 58.3721 11.7413C58.4496 11.7897 58.5223 11.8333 58.5901 11.8721C58.6676 11.9012 58.7306 11.9254 58.7791 11.9448H60.2907H61.7733C61.8508 11.9351 61.9816 11.9205 62.1657 11.9012C62.3595 11.8818 62.5581 11.8624 62.7616 11.843C62.9748 11.814 63.1734 11.7849 63.3576 11.7558C63.5514 11.7267 63.687 11.6977 63.7645 11.6686C63.7839 11.6492 63.8081 11.6056 63.8372 11.5378C63.876 11.4603 63.8953 11.4118 63.8953 11.3924V11.2616V11.1453C63.8953 11.1163 63.8905 11.063 63.8808 10.9855C63.8711 10.8983 63.8566 10.811 63.8372 10.7238C63.8275 10.6269 63.813 10.5349 63.7936 10.4477C63.7839 10.3605 63.7742 10.2975 63.7645 10.2587C63.6676 10.1909 63.5853 10.1085 63.5174 10.0116C63.4496 9.91473 63.3769 9.82267 63.2994 9.73547C63.2316 9.63857 63.1541 9.55136 63.0669 9.47384C62.9893 9.39632 62.8924 9.33333 62.7762 9.28488C62.7083 9.25581 62.6163 9.21705 62.5 9.16861C62.3934 9.11047 62.2868 9.05717 62.1802 9.00872C62.0736 8.96027 61.9816 8.91667 61.9041 8.87791C61.8265 8.83915 61.7829 8.81492 61.7733 8.80523H61.6715H61.5552C61.4874 8.81492 61.4002 8.82946 61.2936 8.84884C61.187 8.86822 61.0804 8.8876 60.9738 8.90698C60.8672 8.91667 60.7752 8.92636 60.6977 8.93605C60.6202 8.94574 60.5765 8.95058 60.5669 8.95058C60.5378 8.95058 60.4893 8.96996 60.4215 9.00872C60.3634 9.03779 60.2955 9.07171 60.218 9.11047C60.1502 9.14923 60.0824 9.18798 60.0145 9.22674C59.9564 9.25581 59.9176 9.27519 59.8983 9.28488C59.7335 9.34302 59.5736 9.38663 59.4186 9.4157C59.2733 9.44477 59.1473 9.54167 59.0407 9.7064C59.0213 9.73547 58.9777 9.80814 58.9099 9.92442C58.8421 10.0407 58.7984 10.1134 58.7791 10.1424C58.7209 10.249 58.6531 10.3508 58.5756 10.4477C58.4981 10.5349 58.4254 10.6269 58.3576 10.7238C58.2897 10.811 58.2316 10.9128 58.1831 11.0291C58.1347 11.1357 58.1105 11.2568 58.1105 11.3924ZM55.9157 14.939V14.6628C55.9254 14.6143 55.9351 14.5223 55.9448 14.3866C55.9641 14.251 55.9738 14.1105 55.9738 13.9651C55.9835 13.8101 55.9932 13.6647 56.0029 13.5291C56.0126 13.3934 56.0271 13.3014 56.0465 13.2529C56.0562 13.0785 56.0804 12.8847 56.1192 12.6715C56.1676 12.4486 56.2209 12.2258 56.2791 12.0029C56.3469 11.78 56.4244 11.5669 56.5116 11.3634C56.5988 11.1502 56.6957 10.9661 56.8023 10.811C56.812 10.8014 56.8314 10.782 56.8605 10.7529C56.8992 10.7141 56.938 10.6802 56.9767 10.6512C57.0155 10.6124 57.0494 10.5785 57.0785 10.5494C57.1172 10.5203 57.1415 10.501 57.1512 10.4913C57.1609 10.4816 57.1705 10.4525 57.1802 10.4041C57.1996 10.3556 57.219 10.3072 57.2384 10.2587C57.2578 10.2103 57.2723 10.1667 57.282 10.1279C57.3014 10.0795 57.3159 10.0504 57.3256 10.0407C57.4903 9.75969 57.6938 9.52713 57.936 9.34302C58.1783 9.15892 58.4254 8.97965 58.6773 8.80523C58.8517 8.69864 59.0116 8.60174 59.157 8.51454C59.312 8.41764 59.4622 8.33527 59.6076 8.26744C59.7626 8.18992 59.9225 8.12209 60.0872 8.06395C60.2616 8.00581 60.4554 7.95736 60.6686 7.91861C60.688 7.91861 60.7655 7.91376 60.9012 7.90407C61.0465 7.89438 61.2112 7.88954 61.3953 7.88954C61.5795 7.87985 61.7684 7.87016 61.9622 7.86047C62.156 7.85078 62.311 7.84593 62.4273 7.84593H62.5581H62.689C63.0087 7.92345 63.3091 8.0155 63.5901 8.12209C63.8808 8.21899 64.1473 8.34496 64.3895 8.5C64.6415 8.65504 64.8692 8.84399 65.0727 9.06686C65.2859 9.28004 65.4797 9.53682 65.6541 9.83721C65.6638 9.85659 65.6783 9.91473 65.6977 10.0116C65.7171 10.0988 65.7364 10.1424 65.7558 10.1424C65.814 10.2878 65.8818 10.4186 65.9593 10.5349C66.0465 10.6512 66.124 10.7674 66.1919 10.8837C66.2694 10.9903 66.3324 11.1066 66.3808 11.2326C66.4293 11.3488 66.4535 11.4845 66.4535 11.6395C66.4535 11.8236 66.376 12.0029 66.2209 12.1773C66.0756 12.3421 65.9593 12.4729 65.8721 12.5698C65.814 12.5891 65.7074 12.6134 65.5523 12.6424C65.407 12.6715 65.2422 12.7006 65.0581 12.7297C64.8837 12.7587 64.7045 12.7829 64.5203 12.8023C64.3459 12.8217 64.2006 12.8314 64.0843 12.8314C64.0455 12.8314 63.9583 12.8314 63.8227 12.8314C63.6967 12.8217 63.5417 12.812 63.3576 12.8023C63.1831 12.7926 62.9942 12.7878 62.7907 12.7878C62.5872 12.7781 62.3934 12.7733 62.2093 12.7733C62.0155 12.7733 61.8459 12.7829 61.7006 12.8023C61.5649 12.8217 61.4729 12.8314 61.4244 12.8314C61.4147 12.8314 61.3711 12.8362 61.2936 12.8459C61.2258 12.8556 61.1483 12.8702 61.061 12.8895C60.9738 12.8992 60.8915 12.9089 60.814 12.9186C60.7364 12.9283 60.688 12.9331 60.6686 12.9331C60.562 12.9428 60.407 12.9477 60.2035 12.9477C60 12.9477 59.7723 12.9477 59.5203 12.9477C59.2684 12.9477 59.031 12.9477 58.8081 12.9477C58.595 12.9477 58.4448 12.9428 58.3576 12.9331C58.28 12.9428 58.2267 12.9719 58.1977 13.0203C58.1686 13.0591 58.1444 13.1027 58.125 13.1512C58.125 13.1512 58.1202 13.1754 58.1105 13.2238C58.1105 13.2626 58.1105 13.311 58.1105 13.3692C58.1105 13.4273 58.1105 13.4903 58.1105 13.5581C58.1105 13.6163 58.1105 13.6647 58.1105 13.7035C58.1105 13.7519 58.1105 13.8246 58.1105 13.9215C58.1105 14.0184 58.1105 14.1153 58.1105 14.2122C58.1105 14.2994 58.1105 14.3818 58.1105 14.4593C58.1202 14.5368 58.125 14.5804 58.125 14.5901C58.1347 14.7936 58.2122 15.0698 58.3576 15.4186C58.5029 15.7578 58.6725 16.1017 58.8663 16.4506C59.0698 16.7994 59.2829 17.124 59.5058 17.4244C59.7384 17.7151 59.9515 17.9089 60.1453 18.0058C60.1841 18.0349 60.2762 18.0882 60.4215 18.1657C60.5669 18.2432 60.7219 18.3256 60.8866 18.4128C61.0514 18.4903 61.2064 18.5678 61.3517 18.6453C61.5068 18.7132 61.6134 18.7616 61.6715 18.7907C61.72 18.7907 61.7539 18.7859 61.7733 18.7762C61.8023 18.7665 61.8362 18.7616 61.875 18.7616C62.0688 18.7616 62.2481 18.7859 62.4128 18.8343C62.5872 18.8828 62.7713 18.907 62.9651 18.907H63.1831C63.2316 18.907 63.2849 18.9021 63.343 18.8924L64.7965 18.1366C64.8353 18.0203 64.8837 17.9041 64.9419 17.7878C65 17.6618 65.0678 17.5504 65.1453 17.4535C65.2326 17.3566 65.3295 17.2791 65.436 17.2209C65.5523 17.1628 65.6928 17.1337 65.8576 17.1337H65.8721C65.8915 17.1531 65.9157 17.187 65.9448 17.2355C65.9835 17.2839 66.0029 17.313 66.0029 17.3227C66.0029 17.3421 65.9835 17.3953 65.9448 17.4826C65.9157 17.5698 65.8915 17.6376 65.8721 17.686C65.7655 17.9671 65.6541 18.2335 65.5378 18.4855C65.4215 18.7374 65.2762 18.9893 65.1017 19.2413C65.0824 19.2607 65.0484 19.2946 65 19.343C64.9515 19.3915 64.8983 19.4448 64.8401 19.5029C64.782 19.561 64.7238 19.6192 64.6657 19.6773C64.6172 19.7258 64.5785 19.7645 64.5494 19.7936C64.53 19.8033 64.4913 19.8227 64.4331 19.8517C64.3847 19.8808 64.3265 19.9147 64.2587 19.9535C64.2006 19.9826 64.1473 20.0165 64.0988 20.0552C64.0504 20.0843 64.0213 20.1037 64.0116 20.1134C63.7888 20.249 63.5901 20.3702 63.4157 20.4767C63.251 20.5833 63.0814 20.6754 62.907 20.7529C62.7422 20.8304 62.563 20.8934 62.3692 20.9419C62.1851 20.9806 61.9719 21 61.7297 21C61.0901 21 60.4797 20.9273 59.8983 20.782C59.3169 20.6269 58.7888 20.3992 58.314 20.0988C57.8391 19.7888 57.4322 19.4012 57.093 18.936C56.7636 18.4612 56.531 17.8992 56.3953 17.25C56.3566 17.1434 56.313 16.9835 56.2645 16.7703C56.2161 16.5572 56.1676 16.3391 56.1192 16.1163C56.0707 15.8934 56.0271 15.6899 55.9884 15.5058C55.9496 15.312 55.9254 15.1909 55.9157 15.1424V14.939ZM75.2326 9.40116C75.2519 9.38178 75.2762 9.29457 75.3052 9.13954C75.3343 8.97481 75.3682 8.72287 75.407 8.38372C75.4167 8.18992 75.436 8.00581 75.4651 7.8314C75.4942 7.64729 75.5329 7.47771 75.5814 7.32267C75.5911 7.31298 75.6105 7.26938 75.6395 7.19186C75.6686 7.11434 75.6977 7.03198 75.7267 6.94477C75.7655 6.84787 75.7994 6.76066 75.8285 6.68314C75.8576 6.60562 75.8769 6.55717 75.8866 6.53779C75.8963 6.49903 75.9157 6.42151 75.9448 6.30523C75.9835 6.17926 76.0223 6.04845 76.061 5.91279C76.0998 5.77713 76.1337 5.65116 76.1628 5.53488C76.2016 5.40892 76.2258 5.3314 76.2355 5.30233C76.2936 5.07946 76.4002 4.87112 76.5552 4.67733C76.7103 4.47384 76.8556 4.27519 76.9913 4.0814L77.2093 3.80523C77.6163 3.24322 78.0766 2.7345 78.5901 2.27907C79.1134 1.82364 79.6754 1.44089 80.2762 1.13081C80.8769 0.820737 81.5116 0.583334 82.1802 0.418605C82.8488 0.244187 83.532 0.156977 84.2297 0.156977C84.7529 0.156977 85.2471 0.181202 85.7122 0.229652C86.1773 0.278102 86.6279 0.350776 87.064 0.447675C87.5097 0.534884 87.9506 0.646319 88.3866 0.781977C88.8227 0.917636 89.2829 1.07752 89.7674 1.26163H89.9419C90.0872 1.26163 90.2083 1.20833 90.3052 1.10174C90.4021 0.985466 90.4797 0.864342 90.5378 0.738373C90.6153 0.602714 90.7074 0.4719 90.814 0.345931C90.9302 0.219962 91.0998 0.156977 91.3227 0.156977C91.4486 0.156977 91.5552 0.190892 91.6424 0.258722C91.7297 0.326551 91.7975 0.41376 91.8459 0.52035C91.9041 0.626939 91.9477 0.743218 91.9767 0.869187C92.0058 0.985466 92.0203 1.0969 92.0203 1.20349C92.0107 1.22287 92.0058 1.24225 92.0058 1.26163C91.9961 1.28101 91.9913 1.30523 91.9913 1.3343C91.9913 1.35368 91.9864 1.37306 91.9767 1.39244C91.9574 1.42151 91.938 1.46027 91.9186 1.50872C91.9186 1.53779 91.9089 1.59109 91.8895 1.66861C91.8798 1.73643 91.875 1.80911 91.875 1.88663C91.8556 2.02229 91.8362 2.15795 91.8169 2.29361C91.8072 2.42926 91.7926 2.53585 91.7733 2.61337V2.91861C91.8605 3.47093 91.9235 4.03295 91.9622 4.60465C92.001 5.17636 92.0203 5.73837 92.0203 6.2907V6.9157C91.9719 6.98353 91.9041 7.04651 91.8169 7.10465C91.7297 7.16279 91.6473 7.19186 91.5698 7.19186C91.4535 7.19186 91.3469 7.14826 91.25 7.06105C91.1531 6.96415 91.0659 6.84787 90.9884 6.71221C90.9205 6.57655 90.8576 6.4312 90.7994 6.27616C90.751 6.12112 90.7074 5.97578 90.6686 5.84012C90.6298 5.73353 90.5959 5.64632 90.5669 5.57849C90.5475 5.50097 90.5281 5.43799 90.5087 5.38954C90.499 5.37016 90.47 5.32655 90.4215 5.25872C90.3828 5.19089 90.3343 5.11822 90.2762 5.0407C90.2277 4.96318 90.1841 4.89535 90.1454 4.83721C90.1066 4.76938 90.0872 4.72578 90.0872 4.7064C90.0581 4.67733 90.0048 4.59981 89.9273 4.47384C89.8498 4.34787 89.7674 4.21705 89.6802 4.0814C89.593 3.93605 89.5107 3.80039 89.4331 3.67442C89.3556 3.54845 89.312 3.46609 89.3023 3.42733C89.2442 3.38857 89.2103 3.36434 89.2006 3.35465C89.1909 3.34496 89.186 3.31589 89.186 3.26744C89.0213 3.19961 88.8857 3.10756 88.7791 2.99128C88.3624 2.69089 87.9457 2.40504 87.5291 2.13372C87.1221 1.8624 86.6667 1.67345 86.1628 1.56686H85.7122C85.6928 1.56686 85.6638 1.56202 85.625 1.55233C85.5959 1.54264 85.5572 1.5281 85.5087 1.50872C85.4893 1.50872 85.47 1.50872 85.4506 1.50872C85.4409 1.49903 85.4167 1.49419 85.3779 1.49419C85.3488 1.4845 85.3052 1.47965 85.2471 1.47965C85.189 1.46996 85.1017 1.45543 84.9855 1.43605C84.6269 1.43605 84.2878 1.46996 83.968 1.53779C83.6483 1.59593 83.3236 1.6783 82.9942 1.78488C82.9651 1.79457 82.9312 1.80426 82.8924 1.81395C82.8634 1.82364 82.8343 1.83333 82.8052 1.84302C82.7859 1.85271 82.7665 1.85756 82.7471 1.85756C82.6793 1.87694 82.6357 1.88663 82.6163 1.88663C82.6066 1.88663 82.5824 1.88663 82.5436 1.88663C82.5048 1.90601 82.4709 1.92054 82.4419 1.93023C82.4225 1.93992 82.3498 1.96899 82.2238 2.01744C82.1754 2.03682 82.1027 2.09496 82.0058 2.19186C81.9089 2.27907 81.7539 2.41957 81.5407 2.61337C81.4922 2.66182 81.4341 2.71512 81.3663 2.77326C81.3081 2.82171 81.2645 2.85562 81.2355 2.875C81.187 2.92345 81.1337 2.9719 81.0756 3.02035C81.0174 3.0688 80.9787 3.10271 80.9593 3.12209C80.9399 3.14147 80.8915 3.18992 80.814 3.26744C80.7461 3.34496 80.7122 3.38857 80.7122 3.39826C80.6928 3.42733 80.6638 3.48547 80.625 3.57268C80.5862 3.65988 80.5426 3.75194 80.4942 3.84884C80.4457 3.94574 80.3973 4.03295 80.3488 4.11047C80.3101 4.18799 80.281 4.23643 80.2616 4.25581C80.2422 4.27519 80.218 4.30911 80.189 4.35756C80.1696 4.40601 80.1405 4.45446 80.1017 4.50291C80.0533 4.58043 79.9952 4.66764 79.9273 4.76454C79.8595 4.85174 79.7917 4.93895 79.7238 5.02616C79.6657 5.11337 79.6124 5.19089 79.564 5.25872C79.5252 5.31686 79.5058 5.35078 79.5058 5.36047C79.4961 5.37016 79.4864 5.39923 79.4767 5.44767C79.4671 5.48643 79.4574 5.53488 79.4477 5.59302C79.438 5.64147 79.4283 5.69477 79.4186 5.75291C79.4089 5.80136 79.4041 5.83043 79.4041 5.84012C79.3847 5.8595 79.3508 5.91764 79.3023 6.01454C79.2636 6.11143 79.2151 6.21802 79.157 6.3343C79.1085 6.45058 79.0601 6.55717 79.0116 6.65407C78.9729 6.75097 78.9535 6.81395 78.9535 6.84302C78.9244 6.89147 78.905 6.94477 78.8954 7.00291L78.8663 7.11919C78.8469 7.2064 78.8178 7.34205 78.7791 7.52616C78.75 7.70058 78.7209 7.88469 78.6919 8.07849C78.6628 8.2626 78.6386 8.43217 78.6192 8.58721C78.5998 8.74225 78.5901 8.83915 78.5901 8.87791V11.0727C78.6095 11.0921 78.6337 11.1744 78.6628 11.3198C78.7016 11.4554 78.7209 11.5911 78.7209 11.7267C78.7209 11.688 78.6773 11.906 78.5901 12.3808C78.6579 12.5262 78.6967 12.6909 78.7064 12.875C78.7258 13.0494 78.75 13.2287 78.7791 13.4128C78.7985 13.5581 78.8178 13.7229 78.8372 13.907C78.8663 14.0814 78.905 14.2655 78.9535 14.4593C78.9922 14.6143 79.0746 14.7984 79.2006 15.0116C79.3266 15.2248 79.4525 15.4283 79.5785 15.6221C79.6172 15.6802 79.6657 15.7529 79.7238 15.8401C79.7917 15.9273 79.8789 16.0775 79.9855 16.2907C80.0824 16.4845 80.1793 16.6783 80.2762 16.8721C80.3828 17.0562 80.5184 17.1919 80.6831 17.2791C80.7219 17.2984 80.7461 17.313 80.7558 17.3227C80.7655 17.3227 80.7897 17.3324 80.8285 17.3517C80.8769 17.3808 80.9496 17.4341 81.0465 17.5116C81.1531 17.5891 81.3178 17.7393 81.5407 17.9622C81.6667 18.0979 81.7926 18.2287 81.9186 18.3547C82.0543 18.4709 82.156 18.5484 82.2238 18.5872C82.2335 18.5872 82.2432 18.5969 82.2529 18.6163C82.2626 18.6357 82.3014 18.6599 82.3692 18.689C82.3692 18.6986 82.3934 18.7132 82.4419 18.7326C82.4903 18.7519 82.5485 18.7762 82.6163 18.8052C82.6841 18.8246 82.7616 18.8585 82.8488 18.907C82.9651 18.9554 83.0814 19.0087 83.1977 19.0669C83.3236 19.1153 83.4448 19.1638 83.561 19.2122C83.6773 19.2607 83.7791 19.3043 83.8663 19.343C83.9632 19.3721 84.0359 19.3866 84.0843 19.3866H84.9855C85.0242 19.406 85.0533 19.4205 85.0727 19.4302C85.0921 19.4302 85.155 19.4496 85.2616 19.4884H85.6395C85.9981 19.4884 86.3566 19.4157 86.7151 19.2703C87.0833 19.125 87.437 18.9409 87.7762 18.718C88.1153 18.4855 88.4302 18.2335 88.7209 17.9622C89.0213 17.6812 89.2781 17.4099 89.4913 17.1483C89.6269 16.9835 89.7238 16.843 89.782 16.7267C89.8498 16.6105 89.9176 16.4845 89.9855 16.3488L90.189 15.9273C90.2277 15.8207 90.2665 15.719 90.3052 15.6221C90.3537 15.5155 90.3973 15.4041 90.436 15.2878C90.5233 15.0359 90.6202 14.7839 90.7267 14.532C90.8333 14.28 90.9545 14.0281 91.0901 13.7762C91.1289 13.718 91.2452 13.689 91.439 13.689C91.6037 13.689 91.7151 13.7229 91.7733 13.7907C91.8314 13.8585 91.9089 13.9748 92.0058 14.1395V14.7645C92.0058 15.22 91.9767 15.6705 91.9186 16.1163C91.8992 16.3488 91.8798 16.5717 91.8605 16.7849C91.8508 16.9981 91.8459 17.2452 91.8459 17.5262C91.8459 17.5746 91.8508 17.6957 91.8605 17.8895C91.8702 18.0736 91.8847 18.2723 91.9041 18.4855C91.9235 18.689 91.938 18.8828 91.9477 19.0669C91.9671 19.2413 91.9864 19.3479 92.0058 19.3866V19.561C92.0058 19.6289 91.9864 19.7112 91.9477 19.8081C91.9186 19.905 91.875 20.0019 91.8169 20.0988C91.7684 20.186 91.7103 20.2636 91.6424 20.3314C91.5746 20.3895 91.5068 20.4186 91.439 20.4186C91.3033 20.4186 91.2064 20.375 91.1483 20.2878C91.0998 20.2006 91.0659 20.1037 91.0465 19.9971C91.0271 19.9777 91.0174 19.9583 91.0174 19.939C91.0174 19.9196 91.0078 19.8953 90.9884 19.8663C90.9884 19.8372 90.9641 19.7791 90.9157 19.6919C90.8769 19.6047 90.8285 19.5126 90.7704 19.4157C90.7219 19.3091 90.6735 19.2171 90.625 19.1395C90.5766 19.0523 90.5475 18.9942 90.5378 18.9651C90.4797 18.9264 90.4118 18.907 90.3343 18.907C90.1405 18.907 89.9612 18.97 89.7965 19.0959C89.6415 19.2122 89.4961 19.3333 89.3605 19.4593C89.2733 19.5562 89.186 19.6483 89.0988 19.7355C89.0213 19.813 88.9486 19.8663 88.8808 19.8953C88.8517 19.8953 88.8178 19.905 88.7791 19.9244C88.7403 19.9341 88.6967 19.9438 88.6483 19.9535C88.6095 19.9632 88.5804 19.968 88.561 19.968C88.4932 20.0455 88.4109 20.1037 88.314 20.1424C88.2267 20.1715 88.1298 20.2054 88.0233 20.2442C87.9167 20.2829 87.7955 20.3217 87.6599 20.3605C87.5242 20.3895 87.3789 20.4283 87.2238 20.4767C86.9816 20.5349 86.7442 20.6076 86.5116 20.6948C86.2791 20.7723 86.061 20.874 85.8576 21C85.5959 21.0194 85.3295 21.0339 85.0581 21.0436C84.7868 21.063 84.5107 21.0727 84.2297 21.0727C84.0068 21.0727 83.7742 21.063 83.532 21.0436C83.2994 21.0339 83.062 21.0194 82.8198 21C82.8004 20.9903 82.7616 20.9758 82.7035 20.9564C82.6454 20.937 82.5824 20.9176 82.5145 20.8983C82.4467 20.8692 82.3837 20.8498 82.3256 20.8401C82.2674 20.8207 82.2238 20.8062 82.1948 20.7965C82.2141 20.7965 82.1802 20.7917 82.093 20.782C82.0155 20.7626 81.9331 20.7529 81.8459 20.7529C81.749 20.7238 81.6715 20.7045 81.6134 20.6948C81.5552 20.6851 81.5116 20.6705 81.4826 20.6512C81.3954 20.6027 81.3421 20.5736 81.3227 20.564C81.313 20.5543 81.3033 20.5494 81.2936 20.5494C81.1967 20.4913 81.0756 20.4477 80.9302 20.4186C80.688 20.3314 80.4457 20.2393 80.2035 20.1424C79.9709 20.0359 79.7432 19.9196 79.5204 19.7936C79.1812 19.5804 78.8663 19.3333 78.5756 19.0523C78.2849 18.7616 78.0136 18.4661 77.7616 18.1657C77.7326 18.1269 77.6647 18.0397 77.5581 17.9041C77.4516 17.7684 77.3353 17.6279 77.2093 17.4826C77.0833 17.3275 76.9671 17.1822 76.8605 17.0465C76.7539 16.9109 76.686 16.8285 76.657 16.7994C76.6473 16.7703 76.6182 16.7122 76.5698 16.625C76.5213 16.5281 76.4632 16.4215 76.3954 16.3052C76.3372 16.189 76.2791 16.0775 76.2209 15.9709C76.1725 15.8547 76.1337 15.7723 76.1047 15.7238C76.0853 15.6851 76.061 15.6318 76.032 15.564C76.0029 15.4864 75.9787 15.4041 75.9593 15.3169C75.9205 15.2103 75.8818 15.1134 75.843 15.0262C75.814 14.9293 75.7946 14.8566 75.7849 14.8081C75.7461 14.6725 75.6928 14.4835 75.625 14.2413C75.5669 13.999 75.5087 13.7616 75.4506 13.5291C75.3924 13.2965 75.344 13.093 75.3052 12.9186C75.2665 12.7345 75.2471 12.6376 75.2471 12.6279C75.2277 12.3663 75.2035 12.095 75.1744 11.814C75.155 11.5233 75.1454 11.2229 75.1454 10.9128C75.1454 10.4477 75.1744 9.9438 75.2326 9.40116ZM94.3895 20.5494C94.3895 20.3944 94.4186 20.2733 94.4767 20.186C94.5446 20.0988 94.6269 20.0359 94.7238 19.9971C94.8304 19.9486 94.9467 19.9196 95.0727 19.9099C95.2083 19.8905 95.3391 19.876 95.4651 19.8663C95.4845 19.8469 95.5329 19.8372 95.6105 19.8372C95.688 19.8372 95.7703 19.8421 95.8576 19.8517C95.9545 19.8614 96.0174 19.8663 96.0465 19.8663C96.1434 19.8081 96.2403 19.7355 96.3372 19.6483C96.4438 19.5514 96.5359 19.4496 96.6134 19.343C96.7006 19.2267 96.7684 19.1056 96.8169 18.9797C96.875 18.844 96.9041 18.7132 96.9041 18.5872L96.9477 15.8401L96.9767 15.2878L97.093 12.5262C97.1221 12.3517 97.1366 12.1967 97.1366 12.061C97.1463 11.9157 97.1512 11.7752 97.1512 11.6395C97.1512 11.4748 97.1318 11.2955 97.093 11.1017C97.064 10.8983 97.001 10.719 96.9041 10.564C96.7684 10.3411 96.6037 10.1328 96.4099 9.93895C96.2258 9.73547 96.0126 9.56589 95.7703 9.43023C95.751 9.42054 95.7122 9.41085 95.6541 9.40116C95.5959 9.38178 95.5329 9.3624 95.4651 9.34302C95.407 9.32364 95.3488 9.29942 95.2907 9.27035C95.2422 9.23159 95.218 9.19283 95.218 9.15407C95.218 9.05717 95.3004 8.95058 95.4651 8.8343C95.6298 8.71802 95.8188 8.60659 96.032 8.5C96.2452 8.38372 96.4535 8.28682 96.657 8.2093C96.8702 8.12209 97.0155 8.05426 97.093 8.00581C97.2287 7.94767 97.3547 7.875 97.4709 7.78779C97.5969 7.69089 97.718 7.59884 97.8343 7.51163C97.9603 7.42442 98.0862 7.35174 98.2122 7.29361C98.3382 7.22578 98.4787 7.19186 98.6337 7.19186C98.75 7.19186 98.8421 7.25969 98.9099 7.39535C98.9777 7.53101 99.031 7.70058 99.0698 7.90407C99.1085 8.09787 99.1424 8.31589 99.1715 8.55814C99.2006 8.7907 99.2345 9.00872 99.2733 9.21221C99.312 9.40601 99.3605 9.57074 99.4186 9.7064C99.4767 9.84205 99.5591 9.90988 99.6657 9.90988C99.7335 9.90988 99.7771 9.90504 99.7965 9.89535C99.8159 9.88566 99.8547 9.8469 99.9128 9.77907C99.9225 9.75969 99.9661 9.69671 100.044 9.59012C100.121 9.47384 100.208 9.35271 100.305 9.22674C100.412 9.09109 100.509 8.96996 100.596 8.86337C100.683 8.75678 100.741 8.6938 100.77 8.67442C100.867 8.55814 101.037 8.41279 101.279 8.23837C101.521 8.06395 101.783 7.89438 102.064 7.72965C102.355 7.56492 102.636 7.42442 102.907 7.30814C103.178 7.18217 103.387 7.11919 103.532 7.11919C103.735 7.11919 103.929 7.15795 104.113 7.23547C104.307 7.31298 104.477 7.42442 104.622 7.56977C104.767 7.70543 104.884 7.86531 104.971 8.04942C105.058 8.23353 105.102 8.42733 105.102 8.63081C105.102 9.01841 105.015 9.35756 104.84 9.64826C104.675 9.93895 104.39 10.1667 103.983 10.3314H103.808C103.634 10.3314 103.474 10.2926 103.328 10.2151C103.183 10.1279 103.038 10.0359 102.892 9.93895C102.757 9.83236 102.616 9.74031 102.471 9.66279C102.326 9.57558 102.171 9.53198 102.006 9.53198C101.783 9.53198 101.584 9.57074 101.41 9.64826C101.245 9.71609 101.076 9.78876 100.901 9.86628C100.862 9.89535 100.799 9.93411 100.712 9.98256C100.635 10.0213 100.552 10.0698 100.465 10.1279C100.388 10.1764 100.31 10.22 100.233 10.2587C100.165 10.2975 100.116 10.3217 100.087 10.3314C99.9903 10.3992 99.9031 10.4961 99.8256 10.6221C99.7481 10.7481 99.6802 10.8886 99.6221 11.0436C99.5736 11.189 99.53 11.3391 99.4913 11.4942C99.4622 11.6492 99.4428 11.7849 99.4331 11.9012C99.4331 11.9109 99.4283 11.9593 99.4186 12.0465C99.4089 12.124 99.3944 12.2161 99.375 12.3227C99.3653 12.4293 99.3556 12.5359 99.3459 12.6424C99.3362 12.7393 99.3314 12.8169 99.3314 12.875V12.9041V12.9767C99.3314 13.0446 99.3314 13.1802 99.3314 13.3837C99.3411 13.5775 99.3508 13.8101 99.3605 14.0814C99.3702 14.343 99.375 14.624 99.375 14.9244C99.3847 15.2151 99.3944 15.4961 99.4041 15.7674C99.4138 16.0291 99.4186 16.2616 99.4186 16.4651C99.4283 16.6589 99.4331 16.7897 99.4331 16.8576V18.3837C99.4428 18.4322 99.4622 18.5242 99.4913 18.6599C99.5203 18.7955 99.5543 18.9409 99.593 19.0959C99.6415 19.2413 99.6899 19.3818 99.7384 19.5174C99.7965 19.6434 99.8547 19.7209 99.9128 19.75C100 19.7888 100.121 19.8227 100.276 19.8517C100.441 19.8808 100.601 19.9196 100.756 19.968C100.921 20.0068 101.061 20.0649 101.177 20.1424C101.294 20.22 101.352 20.3217 101.352 20.4477C101.352 20.5543 101.318 20.6463 101.25 20.7238C101.182 20.7917 101.1 20.8498 101.003 20.8983C100.906 20.9467 100.799 20.9806 100.683 21C100.577 21.0291 100.48 21.0436 100.392 21.0436C100.17 21.0436 99.9419 21.0242 99.7093 20.9855C99.4864 20.9467 99.2636 20.9273 99.0407 20.9273C98.7888 20.9273 98.5271 20.9467 98.2558 20.9855C97.9942 21.0242 97.7422 21.0436 97.5 21.0436H97.4564C97.437 21.0436 97.3983 21.0388 97.3401 21.0291C97.2917 21.0291 97.2335 21.0242 97.1657 21.0145C97.1076 21.0145 97.0494 21.0097 96.9913 21C96.9428 21 96.9138 21 96.9041 21C96.875 21 96.8023 21.0048 96.686 21.0145C96.5698 21.0339 96.4874 21.0436 96.439 21.0436H95.8866H95.436C95.3198 21.0436 95.1986 21.0388 95.0727 21.0291C94.9467 21.0194 94.8304 21 94.7238 20.9709C94.6269 20.9322 94.5446 20.8837 94.4767 20.8256C94.4186 20.7578 94.3895 20.6657 94.3895 20.5494ZM108.198 11.3924C108.198 11.4506 108.222 11.5087 108.27 11.5669C108.328 11.625 108.391 11.6831 108.459 11.7413C108.537 11.7897 108.609 11.8333 108.677 11.8721C108.755 11.9012 108.818 11.9254 108.866 11.9448H110.378H111.86C111.938 11.9351 112.069 11.9205 112.253 11.9012C112.447 11.8818 112.645 11.8624 112.849 11.843C113.062 11.814 113.261 11.7849 113.445 11.7558C113.639 11.7267 113.774 11.6977 113.852 11.6686C113.871 11.6492 113.895 11.6056 113.924 11.5378C113.963 11.4603 113.983 11.4118 113.983 11.3924V11.2616V11.1453C113.983 11.1163 113.978 11.063 113.968 10.9855C113.958 10.8983 113.944 10.811 113.924 10.7238C113.915 10.6269 113.9 10.5349 113.881 10.4477C113.871 10.3605 113.861 10.2975 113.852 10.2587C113.755 10.1909 113.672 10.1085 113.605 10.0116C113.537 9.91473 113.464 9.82267 113.387 9.73547C113.319 9.63857 113.241 9.55136 113.154 9.47384C113.077 9.39632 112.98 9.33333 112.863 9.28488C112.796 9.25581 112.703 9.21705 112.587 9.16861C112.481 9.11047 112.374 9.05717 112.267 9.00872C112.161 8.96027 112.069 8.91667 111.991 8.87791C111.914 8.83915 111.87 8.81492 111.86 8.80523H111.759H111.642C111.575 8.81492 111.487 8.82946 111.381 8.84884C111.274 8.86822 111.168 8.8876 111.061 8.90698C110.954 8.91667 110.862 8.92636 110.785 8.93605C110.707 8.94574 110.664 8.95058 110.654 8.95058C110.625 8.95058 110.577 8.96996 110.509 9.00872C110.451 9.03779 110.383 9.07171 110.305 9.11047C110.237 9.14923 110.17 9.18798 110.102 9.22674C110.044 9.25581 110.005 9.27519 109.985 9.28488C109.821 9.34302 109.661 9.38663 109.506 9.4157C109.36 9.44477 109.234 9.54167 109.128 9.7064C109.109 9.73547 109.065 9.80814 108.997 9.92442C108.929 10.0407 108.886 10.1134 108.866 10.1424C108.808 10.249 108.74 10.3508 108.663 10.4477C108.585 10.5349 108.513 10.6269 108.445 10.7238C108.377 10.811 108.319 10.9128 108.27 11.0291C108.222 11.1357 108.198 11.2568 108.198 11.3924ZM106.003 14.939V14.6628C106.013 14.6143 106.022 14.5223 106.032 14.3866C106.051 14.251 106.061 14.1105 106.061 13.9651C106.071 13.8101 106.08 13.6647 106.09 13.5291C106.1 13.3934 106.114 13.3014 106.134 13.2529C106.143 13.0785 106.168 12.8847 106.206 12.6715C106.255 12.4486 106.308 12.2258 106.366 12.0029C106.434 11.78 106.512 11.5669 106.599 11.3634C106.686 11.1502 106.783 10.9661 106.89 10.811C106.899 10.8014 106.919 10.782 106.948 10.7529C106.986 10.7141 107.025 10.6802 107.064 10.6512C107.103 10.6124 107.137 10.5785 107.166 10.5494C107.204 10.5203 107.229 10.501 107.238 10.4913C107.248 10.4816 107.258 10.4525 107.267 10.4041C107.287 10.3556 107.306 10.3072 107.326 10.2587C107.345 10.2103 107.359 10.1667 107.369 10.1279C107.389 10.0795 107.403 10.0504 107.413 10.0407C107.578 9.75969 107.781 9.52713 108.023 9.34302C108.266 9.15892 108.513 8.97965 108.765 8.80523C108.939 8.69864 109.099 8.60174 109.244 8.51454C109.399 8.41764 109.549 8.33527 109.695 8.26744C109.85 8.18992 110.01 8.12209 110.174 8.06395C110.349 8.00581 110.543 7.95736 110.756 7.91861C110.775 7.91861 110.853 7.91376 110.988 7.90407C111.134 7.89438 111.298 7.88954 111.483 7.88954C111.667 7.87985 111.856 7.87016 112.049 7.86047C112.243 7.85078 112.398 7.84593 112.515 7.84593H112.645H112.776C113.096 7.92345 113.396 8.0155 113.677 8.12209C113.968 8.21899 114.234 8.34496 114.477 8.5C114.729 8.65504 114.956 8.84399 115.16 9.06686C115.373 9.28004 115.567 9.53682 115.741 9.83721C115.751 9.85659 115.766 9.91473 115.785 10.0116C115.804 10.0988 115.824 10.1424 115.843 10.1424C115.901 10.2878 115.969 10.4186 116.047 10.5349C116.134 10.6512 116.211 10.7674 116.279 10.8837C116.357 10.9903 116.42 11.1066 116.468 11.2326C116.516 11.3488 116.541 11.4845 116.541 11.6395C116.541 11.8236 116.463 12.0029 116.308 12.1773C116.163 12.3421 116.047 12.4729 115.959 12.5698C115.901 12.5891 115.795 12.6134 115.64 12.6424C115.494 12.6715 115.329 12.7006 115.145 12.7297C114.971 12.7587 114.792 12.7829 114.608 12.8023C114.433 12.8217 114.288 12.8314 114.172 12.8314C114.133 12.8314 114.046 12.8314 113.91 12.8314C113.784 12.8217 113.629 12.812 113.445 12.8023C113.27 12.7926 113.081 12.7878 112.878 12.7878C112.674 12.7781 112.481 12.7733 112.297 12.7733C112.103 12.7733 111.933 12.7829 111.788 12.8023C111.652 12.8217 111.56 12.8314 111.512 12.8314C111.502 12.8314 111.458 12.8362 111.381 12.8459C111.313 12.8556 111.235 12.8702 111.148 12.8895C111.061 12.8992 110.979 12.9089 110.901 12.9186C110.824 12.9283 110.775 12.9331 110.756 12.9331C110.649 12.9428 110.494 12.9477 110.291 12.9477C110.087 12.9477 109.859 12.9477 109.608 12.9477C109.356 12.9477 109.118 12.9477 108.895 12.9477C108.682 12.9477 108.532 12.9428 108.445 12.9331C108.367 12.9428 108.314 12.9719 108.285 13.0203C108.256 13.0591 108.232 13.1027 108.212 13.1512C108.212 13.1512 108.207 13.1754 108.198 13.2238C108.198 13.2626 108.198 13.311 108.198 13.3692C108.198 13.4273 108.198 13.4903 108.198 13.5581C108.198 13.6163 108.198 13.6647 108.198 13.7035C108.198 13.7519 108.198 13.8246 108.198 13.9215C108.198 14.0184 108.198 14.1153 108.198 14.2122C108.198 14.2994 108.198 14.3818 108.198 14.4593C108.207 14.5368 108.212 14.5804 108.212 14.5901C108.222 14.7936 108.299 15.0698 108.445 15.4186C108.59 15.7578 108.76 16.1017 108.953 16.4506C109.157 16.7994 109.37 17.124 109.593 17.4244C109.826 17.7151 110.039 17.9089 110.233 18.0058C110.271 18.0349 110.363 18.0882 110.509 18.1657C110.654 18.2432 110.809 18.3256 110.974 18.4128C111.139 18.4903 111.294 18.5678 111.439 18.6453C111.594 18.7132 111.701 18.7616 111.759 18.7907C111.807 18.7907 111.841 18.7859 111.86 18.7762C111.89 18.7665 111.923 18.7616 111.962 18.7616C112.156 18.7616 112.335 18.7859 112.5 18.8343C112.674 18.8828 112.859 18.907 113.052 18.907H113.27C113.319 18.907 113.372 18.9021 113.43 18.8924L114.884 18.1366C114.922 18.0203 114.971 17.9041 115.029 17.7878C115.087 17.6618 115.155 17.5504 115.233 17.4535C115.32 17.3566 115.417 17.2791 115.523 17.2209C115.64 17.1628 115.78 17.1337 115.945 17.1337H115.959C115.979 17.1531 116.003 17.187 116.032 17.2355C116.071 17.2839 116.09 17.313 116.09 17.3227C116.09 17.3421 116.071 17.3953 116.032 17.4826C116.003 17.5698 115.979 17.6376 115.959 17.686C115.853 17.9671 115.741 18.2335 115.625 18.4855C115.509 18.7374 115.363 18.9893 115.189 19.2413C115.17 19.2607 115.136 19.2946 115.087 19.343C115.039 19.3915 114.985 19.4448 114.927 19.5029C114.869 19.561 114.811 19.6192 114.753 19.6773C114.704 19.7258 114.666 19.7645 114.637 19.7936C114.617 19.8033 114.578 19.8227 114.52 19.8517C114.472 19.8808 114.414 19.9147 114.346 19.9535C114.288 19.9826 114.234 20.0165 114.186 20.0552C114.138 20.0843 114.109 20.1037 114.099 20.1134C113.876 20.249 113.677 20.3702 113.503 20.4767C113.338 20.5833 113.169 20.6754 112.994 20.7529C112.829 20.8304 112.65 20.8934 112.456 20.9419C112.272 20.9806 112.059 21 111.817 21C111.177 21 110.567 20.9273 109.985 20.782C109.404 20.6269 108.876 20.3992 108.401 20.0988C107.926 19.7888 107.519 19.4012 107.18 18.936C106.851 18.4612 106.618 17.8992 106.483 17.25C106.444 17.1434 106.4 16.9835 106.352 16.7703C106.303 16.5572 106.255 16.3391 106.206 16.1163C106.158 15.8934 106.114 15.6899 106.076 15.5058C106.037 15.312 106.013 15.1909 106.003 15.1424V14.939ZM117.398 7.91861V7.77326C117.408 7.74419 117.432 7.70543 117.471 7.65698C117.519 7.60853 117.568 7.56008 117.616 7.51163C117.665 7.45349 117.713 7.40504 117.762 7.36628C117.81 7.32752 117.844 7.3033 117.863 7.29361H118.212H118.663C118.672 7.3033 118.706 7.31783 118.765 7.33721C118.832 7.3469 118.9 7.36143 118.968 7.38081C119.046 7.3905 119.118 7.40019 119.186 7.40988C119.254 7.41957 119.297 7.42442 119.317 7.42442C119.346 7.42442 119.404 7.41957 119.491 7.40988C119.588 7.40019 119.69 7.3905 119.797 7.38081C119.913 7.36143 120.019 7.3469 120.116 7.33721C120.223 7.31783 120.291 7.3033 120.32 7.29361H120.77C121.013 7.29361 121.221 7.3033 121.395 7.32267C121.579 7.34205 121.817 7.37597 122.108 7.42442C122.243 7.4438 122.33 7.49709 122.369 7.5843C122.408 7.66182 122.427 7.75872 122.427 7.875V8.10756C122.379 8.12694 122.321 8.1657 122.253 8.22384C122.185 8.28198 122.117 8.34496 122.049 8.41279C121.982 8.48062 121.919 8.54845 121.86 8.61628C121.812 8.68411 121.778 8.7374 121.759 8.77616L121.73 8.92151C121.71 9.01841 121.701 9.08624 121.701 9.125C121.701 9.42539 121.73 9.72578 121.788 10.0262C121.856 10.3266 121.933 10.6269 122.02 10.9273C122.117 11.218 122.214 11.5087 122.311 11.7994C122.408 12.0901 122.49 12.376 122.558 12.657C122.558 12.6764 122.558 12.7248 122.558 12.8023C122.568 12.8798 122.578 12.9622 122.587 13.0494C122.597 13.1366 122.607 13.219 122.616 13.2965C122.626 13.374 122.631 13.4273 122.631 13.4564C122.641 13.4758 122.674 13.5388 122.733 13.6453C122.791 13.7519 122.854 13.8682 122.922 13.9942C122.989 14.1105 123.047 14.2267 123.096 14.343C123.154 14.4593 123.183 14.532 123.183 14.561C123.193 14.5804 123.212 14.6289 123.241 14.7064C123.28 14.7742 123.319 14.8517 123.358 14.939C123.406 15.0262 123.445 15.1085 123.474 15.186C123.513 15.2636 123.537 15.3072 123.547 15.3169C123.566 15.3459 123.605 15.4089 123.663 15.5058C123.721 15.593 123.784 15.6948 123.852 15.811C123.92 15.9176 123.987 16.0194 124.055 16.1163C124.123 16.2132 124.172 16.281 124.201 16.3198C124.278 16.4264 124.327 16.499 124.346 16.5378C124.375 16.5669 124.433 16.5814 124.52 16.5814C124.695 16.5814 124.83 16.5426 124.927 16.4651C125.034 16.3876 125.121 16.2907 125.189 16.1744C125.257 16.0581 125.315 15.9322 125.363 15.7965C125.422 15.6609 125.484 15.5349 125.552 15.4186C125.562 15.3895 125.596 15.3266 125.654 15.2297C125.722 15.1328 125.795 15.031 125.872 14.9244C125.95 14.8081 126.017 14.7016 126.076 14.6047C126.143 14.5078 126.187 14.4496 126.206 14.4302C126.342 14.2364 126.434 14.0281 126.483 13.8052C126.531 13.5824 126.623 13.3498 126.759 13.1076C126.759 13.0785 126.759 13.03 126.759 12.9622C126.768 12.8847 126.773 12.8023 126.773 12.7151C126.773 12.6182 126.773 12.531 126.773 12.4535C126.783 12.3663 126.788 12.2984 126.788 12.25C126.788 11.6589 126.715 11.0775 126.57 10.5058C126.434 9.92442 126.197 9.37209 125.858 8.84884C125.751 8.70349 125.625 8.60659 125.48 8.55814C125.344 8.5 125.199 8.45155 125.044 8.41279C124.898 8.37403 124.753 8.32074 124.608 8.25291C124.462 8.18508 124.327 8.05911 124.201 7.875V7.77326C124.201 7.61822 124.268 7.50678 124.404 7.43895C124.54 7.36143 124.661 7.31298 124.767 7.29361C124.835 7.31298 124.952 7.32267 125.116 7.32267C125.281 7.32267 125.46 7.32267 125.654 7.32267C125.828 7.32267 126.003 7.32267 126.177 7.32267C126.352 7.32267 126.468 7.31298 126.526 7.29361C126.575 7.29361 126.672 7.28392 126.817 7.26454C126.962 7.24516 127.059 7.22093 127.108 7.19186H130.349C130.465 7.19186 130.533 7.21609 130.552 7.26454C130.572 7.31298 130.581 7.37597 130.581 7.45349C130.581 7.70543 130.504 7.88469 130.349 7.99128C130.194 8.08818 130.024 8.18023 129.84 8.26744C129.656 8.35465 129.486 8.46609 129.331 8.60174C129.176 8.72771 129.099 8.94574 129.099 9.25581C129.099 9.56589 129.147 9.88081 129.244 10.2006C129.341 10.5107 129.477 10.8062 129.651 11.0872C129.69 11.1744 129.753 11.3295 129.84 11.5523C129.937 11.7752 130.029 12.0126 130.116 12.2645C130.213 12.5165 130.3 12.7539 130.378 12.9767C130.455 13.1996 130.509 13.3595 130.538 13.4564C130.606 13.6696 130.644 13.8634 130.654 14.0378C130.673 14.2025 130.707 14.4109 130.756 14.6628C130.795 14.7984 130.838 14.8808 130.887 14.9099C130.945 14.939 131.013 15.0068 131.09 15.1134C131.129 15.1618 131.168 15.2442 131.206 15.3605C131.245 15.4671 131.284 15.5785 131.323 15.6948C131.371 15.8014 131.424 15.8983 131.483 15.9855C131.541 16.0727 131.609 16.1163 131.686 16.1163C131.734 16.1163 131.759 16.1114 131.759 16.1017C131.788 16.1017 131.812 16.0872 131.831 16.0581C131.86 16.0291 131.89 16.0145 131.919 16.0145C132.171 15.2587 132.418 14.4932 132.66 13.718C132.902 12.9428 133.125 12.1773 133.328 11.4215C133.358 11.3246 133.396 11.1841 133.445 11C133.493 10.8062 133.542 10.6172 133.59 10.4331C133.639 10.249 133.677 10.0843 133.706 9.93895C133.745 9.79361 133.769 9.71124 133.779 9.69186C133.779 9.64341 133.779 9.57558 133.779 9.48837C133.789 9.40116 133.794 9.33333 133.794 9.28488C133.794 9.02326 133.75 8.8343 133.663 8.71802C133.585 8.59205 133.484 8.49031 133.358 8.41279C133.241 8.33527 133.106 8.25775 132.951 8.18023C132.805 8.10271 132.67 7.96705 132.544 7.77326V7.67151C132.544 7.51647 132.611 7.40988 132.747 7.35174C132.892 7.28392 133.009 7.23062 133.096 7.19186C133.232 7.1531 133.382 7.13372 133.547 7.13372C133.721 7.12403 133.891 7.11919 134.055 7.11919C134.278 7.11919 134.486 7.12403 134.68 7.13372C134.884 7.14341 135.068 7.14826 135.233 7.14826C135.271 7.14826 135.359 7.14826 135.494 7.14826C135.63 7.13857 135.775 7.12888 135.93 7.11919C136.085 7.1095 136.231 7.10465 136.366 7.10465C136.512 7.09496 136.613 7.09012 136.672 7.09012C136.759 7.1095 136.875 7.1531 137.02 7.22093C137.166 7.27907 137.238 7.36143 137.238 7.46802C137.238 7.60368 137.175 7.73934 137.049 7.875C136.933 8.00097 136.793 8.12694 136.628 8.25291C136.473 8.37888 136.308 8.50485 136.134 8.63081C135.969 8.74709 135.843 8.86337 135.756 8.97965C135.756 8.99903 135.736 9.03779 135.698 9.09593C135.659 9.15407 135.615 9.2219 135.567 9.29942C135.518 9.36725 135.47 9.43992 135.422 9.51744C135.383 9.58527 135.354 9.64341 135.334 9.69186C135.315 9.70155 135.296 9.73547 135.276 9.79361C135.266 9.84205 135.252 9.87112 135.233 9.88081C135.126 10.1715 134.976 10.438 134.782 10.6802C134.588 10.9128 134.438 11.1841 134.331 11.4942C134.331 11.5039 134.327 11.5329 134.317 11.5814C134.317 11.6298 134.312 11.688 134.302 11.7558C134.293 11.814 134.278 11.8721 134.259 11.9302C134.249 11.9787 134.239 12.0078 134.23 12.0174C134.22 12.0659 134.176 12.187 134.099 12.3808C134.031 12.5649 133.953 12.7636 133.866 12.9767C133.779 13.1899 133.697 13.3934 133.619 13.5872C133.551 13.7713 133.513 13.8876 133.503 13.936C133.493 13.9457 133.479 13.9845 133.459 14.0523C133.45 14.1105 133.435 14.1783 133.416 14.2558C133.396 14.3236 133.377 14.3915 133.358 14.4593C133.348 14.5271 133.343 14.5707 133.343 14.5901C133.256 14.968 133.12 15.3556 132.936 15.7529C132.752 16.1502 132.597 16.5329 132.471 16.9012C132.403 17.0562 132.35 17.2258 132.311 17.4099C132.272 17.5843 132.234 17.7636 132.195 17.9477C132.166 18.1221 132.132 18.3014 132.093 18.4855C132.064 18.6696 132.03 18.8391 131.991 18.9942C131.982 19.0426 131.957 19.1298 131.919 19.2558C131.89 19.3721 131.856 19.4981 131.817 19.6337C131.788 19.7694 131.754 19.8953 131.715 20.0116C131.686 20.1182 131.667 20.186 131.657 20.2151C131.638 20.2829 131.609 20.3605 131.57 20.4477C131.531 20.5349 131.483 20.6221 131.424 20.7093C131.366 20.7868 131.303 20.8547 131.235 20.9128C131.168 20.9709 131.09 21 131.003 21C130.838 21 130.693 20.9467 130.567 20.8401C130.451 20.7335 130.344 20.6076 130.247 20.4622C130.16 20.3072 130.087 20.1473 130.029 19.9826C129.971 19.8178 129.922 19.6773 129.884 19.561C129.864 19.5029 129.84 19.4157 129.811 19.2994C129.782 19.1734 129.748 19.0523 129.709 18.936C129.671 18.8101 129.637 18.6986 129.608 18.6017C129.588 18.5048 129.578 18.4419 129.578 18.4128C129.443 18.0736 129.302 17.72 129.157 17.3517C129.012 16.9738 128.881 16.5959 128.765 16.218C128.765 16.189 128.75 16.1308 128.721 16.0436C128.702 15.9564 128.677 15.8643 128.648 15.7674C128.629 15.6609 128.609 15.564 128.59 15.4767C128.571 15.3895 128.556 15.3362 128.547 15.3169C128.517 15.22 128.464 15.0988 128.387 14.9535C128.309 14.7984 128.217 14.6434 128.11 14.4884C128.014 14.3333 127.912 14.188 127.805 14.0523C127.699 13.9167 127.602 13.8198 127.515 13.7616C127.495 13.781 127.456 13.8246 127.398 13.8924C127.34 13.9506 127.272 14.0184 127.195 14.0959C127.127 14.1638 127.064 14.2316 127.006 14.2994C126.948 14.3672 126.909 14.4109 126.89 14.4302C126.87 14.4496 126.846 14.4884 126.817 14.5465C126.797 14.6047 126.778 14.6434 126.759 14.6628C126.759 14.6822 126.749 14.7258 126.73 14.7936C126.72 14.8614 126.701 14.9341 126.672 15.0116C126.652 15.0795 126.628 15.1473 126.599 15.2151C126.57 15.2733 126.546 15.3072 126.526 15.3169C126.468 15.4719 126.405 15.6124 126.337 15.7384C126.269 15.8547 126.202 15.9661 126.134 16.0727C126.066 16.1793 126.003 16.2907 125.945 16.407C125.887 16.5136 125.833 16.6298 125.785 16.7558C125.766 16.814 125.707 16.9496 125.61 17.1628C125.523 17.3663 125.426 17.5891 125.32 17.8314C125.213 18.0736 125.116 18.3014 125.029 18.5145C124.942 18.718 124.889 18.844 124.869 18.8924C124.859 18.9021 124.821 18.9554 124.753 19.0523C124.695 19.1492 124.661 19.2122 124.651 19.2413C124.641 19.2607 124.627 19.3091 124.608 19.3866C124.588 19.4545 124.564 19.532 124.535 19.6192C124.516 19.7064 124.491 19.7888 124.462 19.8663C124.443 19.9341 124.428 19.9777 124.419 19.9971C124.39 20.0843 124.341 20.2006 124.273 20.3459C124.215 20.4816 124.142 20.6172 124.055 20.7529C123.968 20.8789 123.871 20.9903 123.765 21.0872C123.668 21.1841 123.561 21.2326 123.445 21.2326C123.367 21.2326 123.28 21.2035 123.183 21.1453C123.086 21.0969 122.994 21.0339 122.907 20.9564C122.82 20.8789 122.742 20.7965 122.674 20.7093C122.607 20.6221 122.568 20.5446 122.558 20.4767C122.548 20.4477 122.539 20.3944 122.529 20.3169C122.519 20.2393 122.505 20.157 122.485 20.0698C122.476 19.9826 122.466 19.9002 122.456 19.8227C122.447 19.7355 122.437 19.6773 122.427 19.6483C122.418 19.6095 122.384 19.5126 122.326 19.3576C122.267 19.1928 122.204 19.0184 122.137 18.8343C122.078 18.6405 122.02 18.4612 121.962 18.2965C121.914 18.1318 121.885 18.0252 121.875 17.9767C121.875 17.9671 121.865 17.938 121.846 17.8895C121.836 17.8314 121.827 17.7733 121.817 17.7151C121.807 17.657 121.793 17.5988 121.773 17.5407C121.764 17.4826 121.759 17.4438 121.759 17.4244C121.642 17.1143 121.512 16.8043 121.366 16.4942C121.221 16.1744 121.09 15.8595 120.974 15.5494C120.848 15.1812 120.751 14.8275 120.683 14.4884C120.615 14.1492 120.538 13.8052 120.451 13.4564C120.334 13.0882 120.203 12.7054 120.058 12.3081C119.913 11.9012 119.758 11.5039 119.593 11.1163C119.428 10.719 119.249 10.3411 119.055 9.98256C118.861 9.61434 118.653 9.28004 118.43 8.97965C118.333 8.86337 118.227 8.78101 118.11 8.73256C117.994 8.67442 117.883 8.61628 117.776 8.55814C117.67 8.5 117.578 8.42733 117.5 8.34012C117.432 8.25291 117.398 8.1124 117.398 7.91861Z" fill="white"/>
</svg>
