<svg width="77" height="77" viewBox="0 0 77 77" fill="none" xmlns="http://www.w3.org/2000/svg">
<circle cx="38.8218" cy="37.9294" r="35.6445" fill="#D9D9D9" stroke="black"/>
<path d="M29.6731 45.6769L29.6719 45.6764C28.2637 45.0869 26.7811 44.9567 25.3771 45.2135L28.9106 46.6718L28.9112 46.672C32.2299 48.0464 33.8065 51.8519 32.4154 55.1718C31.0248 58.5058 27.2202 60.0648 23.9022 58.691L29.6731 45.6769ZM29.6731 45.6769C31.5609 46.4611 33.0277 47.9413 33.8133 49.8326C34.5967 51.7186 34.5834 53.793 33.7982 55.684L29.6731 45.6769ZM20.5875 57.3216L23.9018 58.6908L20.5875 57.3216ZM20.5875 57.3216C21.4028 58.4141 22.5006 59.2771 23.7746 59.8098C27.6813 61.4364 32.1704 59.5776 33.7978 55.685L20.5875 57.3216ZM43.2451 28.4723L43.2451 28.4742C43.2617 32.7407 46.7337 36.2141 51.0025 36.2141C55.2857 36.2141 58.7598 32.7414 58.7598 28.4723C58.7598 24.1869 55.285 20.7304 51.0025 20.7304C46.7192 20.7304 43.2451 24.2031 43.2451 28.4723ZM76.2513 38.3756C76.2513 59.2982 59.2688 76.2513 38.3138 76.2513C21.2991 76.2513 6.91899 65.0838 2.10883 49.6982L15.6276 55.279C16.7649 60.3446 21.3134 64.1448 26.7237 64.1448C32.9807 64.1448 38.2157 59.0434 38.0942 52.5235L50.8176 43.4591C59.0849 43.5731 65.9862 36.8528 65.9862 28.4877C65.9862 20.2259 59.2622 13.5195 50.987 13.5195C42.7115 13.5195 35.9878 20.2418 35.9878 28.4877V28.5175L27.0732 41.4226C24.7519 41.3461 22.4844 41.9881 20.5413 43.2435L0.529081 34.9739C2.25869 15.6445 18.506 0.5 38.3138 0.5C59.2688 0.5 76.2513 17.4531 76.2513 38.3756ZM50.987 37.6281C45.9395 37.6281 41.8312 33.5187 41.8312 28.4877C41.8312 23.4568 45.9395 19.3474 50.987 19.3474C56.0345 19.3474 60.1428 23.4568 60.1428 28.4877C60.1428 33.5192 56.0494 37.6281 50.987 37.6281Z" fill="url(#paint0_linear_144_845)" stroke="black"/>
<defs>
<linearGradient id="paint0_linear_144_845" x1="38.3756" y1="0" x2="38.3756" y2="76.7513" gradientUnits="userSpaceOnUse">
<stop stop-color="#00273E"/>
<stop offset="0.583333" stop-color="#2C424F"/>
<stop offset="1" stop-color="#6095B3"/>
</linearGradient>
</defs>
</svg>
